<svg xmlns="http://www.w3.org/2000/svg" width="172" height="47" viewBox="0 0 172 47" fill="none">
  <path d="M118.513 16.6038C122.913 16.5883 124.963 21.7106 124.982 21.7611C125.06 21.9592 125.25 22.0873 125.46 22.0873H125.736C125.868 22.0873 125.992 22.0368 126.089 21.9436C127.27 20.8058 128.648 18.9572 128.889 17.598C129.033 16.7825 128.819 16.0291 128.26 15.365C126.567 13.3572 122.116 12.7203 120.225 12.7281C111.402 12.763 103.429 20.2893 101.681 30.2349C100.885 34.7825 101.852 39.0776 104.334 42.0252C106.435 44.5184 109.468 45.8815 112.878 45.8698C122.283 45.8349 126.252 37.4349 126.291 37.3495C126.369 37.1786 126.349 36.9805 126.237 36.833L126.058 36.5922C125.891 36.3669 125.573 36.3164 125.344 36.4834C125.289 36.5223 120.031 40.3436 115.984 40.3592C114.035 40.3669 112.447 39.6601 111.262 38.2543C109.402 36.0485 108.765 32.3436 109.511 28.0873C110.26 23.831 112.998 16.6271 118.513 16.6038Z" fill="url(#paint0_linear_1428_11229)"/>
  <path d="M89.0289 14.8291C88.5396 13.7845 87.6542 13.3495 86.6872 13.2252C86.6134 13.2136 86.5279 13.2097 86.4503 13.2019C86.361 13.1942 86.2716 13.1864 86.1823 13.1864C86.0658 13.1825 85.9648 13.167 85.8406 13.167C83.4173 13.1748 79.9998 14.6816 77.5027 17.501C77.6658 16.3592 77.4173 15.3612 76.7804 14.6078C76.0192 13.7029 74.7338 13.2097 73.1648 13.2136C72.2522 13.2175 71.3241 13.4466 70.2095 13.7922C70.0503 13.8427 69.9066 13.932 69.8561 14.0874C69.8056 14.2466 69.8134 14.3864 69.9105 14.5223C69.9182 14.5417 70.7299 17.0893 68.4736 29.9398C68.1901 31.5631 67.8328 33.2214 67.4561 34.9728C67.0716 36.767 66.6716 38.6194 66.3454 40.4835C65.9881 42.5184 66.1629 43.9204 66.8775 44.7709C67.4328 45.4272 68.2949 45.7456 69.5221 45.7379C70.3998 45.734 71.3629 45.5398 72.3843 45.3379C72.7804 45.2602 73.1843 45.1786 73.5881 45.1087C73.7979 45.0738 73.9648 44.9068 74.0037 44.6932C74.027 44.5612 73.9998 44.4291 73.9299 44.3243C73.8522 44.0718 73.2697 41.633 75.2231 30.5184C76.5668 22.868 78.8153 19.299 82.2988 19.2874C83.0483 19.2835 83.8328 19.5981 84.761 20.0951C84.7804 20.1068 84.7959 20.1184 84.8153 20.1262C85.5765 20.5223 85.9687 21.0388 86.5318 21.1437C89.2697 21.5359 90.1357 17.1903 89.0289 14.8291Z" fill="url(#paint1_linear_1428_11229)"/>
  <path d="M36.7806 4.66619C36.769 4.65066 36.7612 4.63513 36.7496 4.61959C36.7457 4.61571 36.7418 4.61183 36.7379 4.60794C36.567 4.41765 36.4039 4.27008 36.2486 4.14969C33.9806 2.0759 29.2699 0.96134 25.6738 0.972991C12.3767 1.02348 3.03305 13.5982 0.990335 25.4041C-0.163063 32.072 1.01752 37.8934 4.31849 41.8002C7.16121 45.1633 11.5379 46.9303 16.9709 46.9109C24.0544 46.8837 31.2971 42.2002 33.4564 36.2429C33.5146 36.0798 33.4913 35.9011 33.3865 35.7613L33.2544 35.5788C33.169 35.4662 33.0447 35.3924 32.9049 35.373C32.7612 35.3497 32.6253 35.3963 32.5127 35.4817C28.501 38.7206 23.9457 40.441 19.3398 40.4604C16.2214 40.472 13.7282 39.3963 11.9224 37.2643C9.25053 34.1031 8.27965 28.6235 9.32043 22.6002C11.3631 10.7866 18.0117 5.47396 23.6932 5.45454C27.3243 5.43901 30.4894 7.42348 32.4233 10.8371C32.4311 10.8604 32.4311 10.8876 32.4389 10.9109C32.6641 11.3264 32.8583 11.8002 33.0874 12.2118C33.1185 12.2817 33.1534 12.34 33.1845 12.4099C33.2156 12.4837 33.2699 12.5342 33.3282 12.5846C33.8175 13.2565 34.5088 13.5672 35.868 12.6817C36.8311 12.0759 38.1204 10.74 37.9612 7.97105C37.8758 6.32056 37.3282 5.29532 36.7806 4.66619Z" fill="url(#paint2_linear_1428_11229)"/>
  <path d="M95.7748 12.9844C94.8622 12.9883 93.934 13.2174 92.8194 13.563C92.5786 13.6368 92.4272 13.8776 92.4622 14.1261C92.4738 14.2038 92.501 14.2698 92.5398 14.332C92.633 14.6155 93.2388 17.1009 91.0369 29.6485C90.7418 31.3339 90.3845 33.0504 90.0272 34.7747C89.666 36.5184 89.301 38.2737 88.9981 40.0096C88.7029 41.6834 88.9709 43.0271 89.7903 43.998C90.6136 44.9727 91.9728 45.5087 93.6233 45.5009C93.6621 45.5009 93.6971 45.4854 93.7359 45.4776C94.1204 45.4854 94.5126 45.4621 94.9204 45.3689C96.5864 44.9883 98.0738 44.1223 99.1456 42.3164C99.6816 41.4155 99.5418 40.9805 98.7456 40.8912C97.0175 40.697 96.4194 40.1417 96.4971 38.0407C96.5748 37.4543 96.7379 36.1727 96.835 35.6252C97.1922 33.5902 97.7087 30.9766 98.2719 28.1261C98.9359 24.763 99.6893 20.9533 100.303 17.4465C100.501 16.3164 100.252 15.2951 99.5806 14.5028C98.7689 13.532 97.3787 12.9805 95.7748 12.9844Z" fill="url(#paint3_linear_1428_11229)"/>
  <path d="M102.268 2.25424C101.592 1.45424 100.629 1.01152 99.5612 1.01541C97.3204 1.02317 95.0602 3.11249 94.6252 5.57463C94.4039 6.84453 94.7107 8.09113 95.468 8.9921C96.1398 9.78822 97.0835 10.2271 98.1282 10.2232C100.4 10.2154 102.68 8.15327 103.107 5.72608C103.336 4.42123 103.029 3.15521 102.268 2.25424Z" fill="url(#paint4_linear_1428_11229)"/>
  <path d="M136 12.833C135.087 12.8369 134.159 13.066 133.045 13.4116C132.804 13.4854 132.652 13.7262 132.687 13.9747C132.699 14.0524 132.726 14.1184 132.765 14.1805C132.858 14.464 133.464 16.9495 131.262 29.497C130.967 31.1825 130.61 32.899 130.252 34.6233C129.891 36.3669 129.526 38.1223 129.223 39.8582C128.928 41.532 129.196 42.8757 130.015 43.8466C130.839 44.8213 132.198 45.3572 133.848 45.3495C133.887 45.3495 133.922 45.3339 133.961 45.3262C134.345 45.3339 134.738 45.3106 135.149 45.2174C136.815 44.8368 138.303 43.9708 139.375 42.165C139.911 41.264 139.771 40.8291 138.975 40.7398C137.246 40.5456 136.648 39.9902 136.726 37.8893C136.804 37.3029 136.967 36.0213 137.064 35.4737C137.421 33.4388 137.938 30.8252 138.501 27.9747C139.165 24.6116 139.918 20.8019 140.532 17.2951C140.73 16.165 140.481 15.1436 139.81 14.3514C138.99 13.3767 137.6 12.8252 136 12.833Z" fill="url(#paint5_linear_1428_11229)"/>
  <path d="M142.489 2.09897C141.814 1.29897 140.851 0.856249 139.783 0.860133C137.542 0.8679 135.282 2.95722 134.847 5.41936C134.625 6.68926 134.932 7.93586 135.689 8.83683C136.361 9.63295 137.305 10.0718 138.35 10.0679C140.621 10.0601 142.901 7.998 143.328 5.57081C143.557 4.26596 143.254 3.00382 142.489 2.09897Z" fill="url(#paint6_linear_1428_11229)"/>
  <path d="M64.9631 13.7689C62.6408 13.2252 61.1068 13.7611 60.1204 14.565C59.2932 15.1514 58.5942 16.2777 58.365 16.6039C58.1126 16.965 57.8252 17.1825 57.5728 16.9301C57.1611 16.301 56.6174 15.7495 56.0738 15.2835C54.7378 13.7728 52.8815 13.066 50.5437 13.1514C47.1573 13.2757 43.666 15.3495 41.1844 18.5068C39.0718 21.198 37.631 24.2233 36.7495 27.4932C35.6893 31.4194 35.2854 35.2563 35.9806 38.8912C36.7184 42.7592 39.1573 45.4854 42.6912 46.1689C44.9903 46.6155 47.1922 46.1883 49.266 44.9029C49.9262 44.534 53.3475 42.3359 54.2407 41.0039C54.2136 41.4621 54.198 41.9087 54.2058 42.3514C54.2408 43.8621 54.6563 45.1243 55.7786 45.8C56.6524 46.3281 57.6621 46.4252 58.7495 46.1806C60.4155 45.8 61.9029 44.934 62.9747 43.1281C63.5107 42.2272 63.3708 41.7922 62.5747 41.7029C60.8466 41.5087 60.6097 40.8796 60.6874 38.7786C60.7184 37.9514 60.8427 37.0971 61.0019 36.2582C62.1903 29.8971 63.4019 23.5359 64.6058 17.1709C64.7806 16.2427 64.9514 15.3107 65.1378 14.3825C65.2 14.0757 65.1611 13.866 64.9631 13.7689ZM53.2738 36.6505C52.1475 38.3942 50.8116 39.866 49.0757 40.6815C46.7844 41.7611 44.5864 40.965 43.4641 38.6815C42.5825 36.8835 42.4 34.7786 42.5747 32.5378C42.6446 31.6252 42.7883 30.701 42.8621 30.0835C43.5534 26.5223 44.6019 23.4116 46.8543 20.7786C49.7553 17.3883 53.2 17.2757 55.0485 20.4912C56.0505 22.2311 56.3417 24.3398 56.3068 26.5961C56.2563 30.099 55.3204 33.4738 53.2738 36.6505Z" fill="url(#paint7_linear_1428_11229)"/>
  <path d="M171.212 13.3611C168.89 12.8174 167.356 13.3533 166.369 14.1572C165.542 14.7436 164.843 15.8698 164.614 16.196C164.361 16.5572 164.074 16.7747 163.822 16.5222C163.41 15.8931 162.866 15.3417 162.323 14.8756C160.987 13.365 159.13 12.6582 156.792 12.7436C153.406 12.8679 149.915 14.9417 147.433 18.0989C145.321 20.7902 143.88 23.8154 142.998 27.0854C141.938 31.0116 141.534 34.8485 142.229 38.4834C142.967 42.3514 145.406 45.0776 148.94 45.7611C151.239 46.2077 153.441 45.7805 155.515 44.4951C156.175 44.1261 159.596 41.9281 160.49 40.596C160.462 41.0543 160.447 41.5009 160.455 41.9436C160.49 43.4543 160.905 44.7164 162.027 45.3921C162.901 45.9203 163.911 46.0174 164.998 45.7727C166.664 45.3921 168.152 44.5261 169.224 42.7203C169.759 41.8193 169.62 41.3844 168.824 41.2951C167.095 41.1009 166.858 40.4718 166.936 38.3708C166.967 37.5436 167.091 36.6892 167.251 35.8504C168.439 29.4892 169.651 23.1281 170.855 16.763C171.029 15.8349 171.2 14.9028 171.387 13.9747C171.449 13.6718 171.41 13.4621 171.212 13.3611ZM159.519 36.2465C158.392 37.9902 157.057 39.4621 155.321 40.2776C153.029 41.3572 150.831 40.5611 149.709 38.2776C148.827 36.4795 148.645 34.3747 148.82 32.1339C148.89 31.2213 149.033 30.297 149.107 29.6795C149.798 26.1184 150.847 23.0077 153.099 20.3747C156 16.9844 159.445 16.8718 161.293 20.0873C162.295 21.8271 162.587 23.9358 162.552 26.1921C162.501 29.6951 161.565 33.0698 159.519 36.2465Z" fill="url(#paint8_linear_1428_11229)"/>
  <defs>
    <linearGradient id="paint0_linear_1428_11229" x1="115.249" y1="45.8656" x2="115.123" y2="12.7511" gradientUnits="userSpaceOnUse">
      <stop stop-color="#0056B4"/>
      <stop offset="1" stop-color="#0056B4" stop-opacity="0.2"/>
    </linearGradient>
    <linearGradient id="paint1_linear_1428_11229" x1="77.8884" y1="45.7069" x2="77.7646" y2="13.1971" gradientUnits="userSpaceOnUse">
      <stop stop-color="#0056B4"/>
      <stop offset="1" stop-color="#0056B4" stop-opacity="0.2"/>
    </linearGradient>
    <linearGradient id="paint2_linear_1428_11229" x1="19.3783" y1="46.9036" x2="19.2034" y2="1.00256" gradientUnits="userSpaceOnUse">
      <stop stop-color="#0056B4"/>
      <stop offset="1" stop-color="#0056B4" stop-opacity="0.2"/>
    </linearGradient>
    <linearGradient id="paint3_linear_1428_11229" x1="94.6901" y1="45.5025" x2="94.5662" y2="12.9928" gradientUnits="userSpaceOnUse">
      <stop stop-color="#0056B4"/>
      <stop offset="1" stop-color="#0056B4" stop-opacity="0.2"/>
    </linearGradient>
    <linearGradient id="paint4_linear_1428_11229" x1="98.8845" y1="10.2178" x2="98.8495" y2="1.01948" gradientUnits="userSpaceOnUse">
      <stop stop-color="#0056B4"/>
      <stop offset="1" stop-color="#0056B4" stop-opacity="0.2"/>
    </linearGradient>
    <linearGradient id="paint5_linear_1428_11229" x1="134.912" y1="45.3494" x2="134.788" y2="12.8396" gradientUnits="userSpaceOnUse">
      <stop stop-color="#0056B4"/>
      <stop offset="1" stop-color="#0056B4" stop-opacity="0.2"/>
    </linearGradient>
    <linearGradient id="paint6_linear_1428_11229" x1="139.107" y1="10.0646" x2="139.072" y2="0.866348" gradientUnits="userSpaceOnUse">
      <stop stop-color="#0056B4"/>
      <stop offset="1" stop-color="#0056B4" stop-opacity="0.2"/>
    </linearGradient>
    <linearGradient id="paint7_linear_1428_11229" x1="50.4843" y1="46.3402" x2="50.3579" y2="13.1498" gradientUnits="userSpaceOnUse">
      <stop stop-color="#0056B4"/>
      <stop offset="1" stop-color="#0056B4" stop-opacity="0.2"/>
    </linearGradient>
    <linearGradient id="paint8_linear_1428_11229" x1="156.732" y1="45.9355" x2="156.606" y2="12.745" gradientUnits="userSpaceOnUse">
      <stop stop-color="#0056B4"/>
      <stop offset="1" stop-color="#0056B4" stop-opacity="0.2"/>
    </linearGradient>
  </defs>
</svg>