<svg xmlns="http://www.w3.org/2000/svg" width="214" height="80" viewBox="0 0 214 80" fill="none">
  <path d="M211.776 35.2286C208.868 33.7769 205.685 34.0373 202.087 35.6C202.087 35.6 203.099 30.8492 198.754 30.6755L198.759 30.6707C198.759 30.6707 198.59 30.6611 198.305 30.6707C198.3 30.6707 198.291 30.6707 198.286 30.6707C197.456 30.6948 195.604 30.8829 193.453 31.9151C193.188 32.026 192.035 32.5855 191.254 33.2367C191.157 33.3042 191.066 33.3669 190.969 33.4441C188.162 35.6048 186.267 39.1161 183.648 40.8621C183.599 40.8959 183.556 40.9345 183.508 40.9634C182.283 41.7062 180.734 42.7625 176.649 41.9811C172.564 41.1998 173.037 36.5213 173.037 36.5213L173.249 36.5598C174.305 36.6322 179.977 37.6209 183.218 35.5711C186.802 33.3042 188.476 26.1851 179.91 23.9665C179.591 23.8845 179.278 23.8266 178.959 23.7784C178.94 23.7784 178.926 23.7639 178.902 23.7639C178.877 23.7639 178.848 23.7591 178.824 23.7591C178.178 23.6723 177.537 23.653 176.9 23.6964C174.537 23.7205 170.852 24.251 167.774 27.4971C163.549 31.9537 163.429 36.9264 163.429 36.9361C161.615 38.4988 159.295 39.9554 159.869 36.5213C160.781 31.0421 166.149 15.9744 163.805 15.2896C161.466 14.6047 153.474 15.7478 153.02 18.3137C153.02 18.3137 153.112 18.2799 153.252 18.2896C153.715 18.3137 154.684 18.7815 154.332 22.4231C154.091 24.9215 153.314 28.7993 152.731 32.4987C152.731 32.4987 142.713 39.4972 139.515 32.9714C139.448 32.8074 139.38 32.6386 139.322 32.4505C138.633 29.8363 139.482 22.4423 143.924 23.079C144.975 23.6626 145.13 25.6691 143.639 28.0469C143.393 28.4376 143.697 28.944 144.155 28.8813C146.384 28.5678 151.009 27.3138 151.139 22.2494C151.313 15.5693 136.356 16.4278 132.589 25.616C131.026 29.4263 130.703 32.354 130.983 34.6064C129.99 35.7158 126.695 38.9763 127.052 33.1016C127.472 26.1948 127.134 22.4038 122.084 21.2269C117.03 20.05 112.988 25.1867 112.988 25.1867C112.988 25.1867 112.568 20.4697 107.427 21.9022C104.142 22.8186 101.827 25.9343 100.578 28.0614C98.2963 24.5404 94.4667 23.3973 92.2576 23.0452C85.5003 22.042 80.4119 27.661 80.4119 27.661L80.4215 27.6659C79.3749 28.6739 78.4971 29.8604 77.8315 31.1772C77.7061 31.4231 77.5758 31.6836 77.4456 31.9826C77.4408 31.9923 77.4408 32.0019 77.436 32.0116C77.4215 32.0502 77.407 32.0887 77.3877 32.1273C75.1546 37.3316 75.7478 42.7432 76.3122 45.5599C74.3443 47.5181 71.9375 49.3751 71.9375 46.7464C71.9375 42.2946 73.5195 21.4777 73.5195 21.4777C73.5195 21.4777 79.9054 16.7992 77.9569 15.4101C77.8122 15.2992 77.3106 15.1063 76.8958 15.087C74.3781 14.9616 64.9825 17.0934 63.878 17.5565C63.0146 17.8507 62.4021 18.1594 62.2526 18.4632C62.1898 18.5934 62.1078 18.7574 62.021 18.9359C62.021 18.9407 62.0162 18.9407 62.0162 18.9455C61.8522 19.2783 61.64 19.7124 61.394 20.2092C61.394 20.2092 56.3875 32.2141 54.6415 33.7672C53.9422 34.4955 52.8859 34.7704 51.4872 32.8219C48.7572 29.0164 43.664 21.6948 42.299 21.4777C40.934 21.2607 27.6558 23.5613 25.7168 24.2076C24.4773 24.6224 20.831 27.1546 19.5866 31.7559H19.5817C19.5817 31.7656 19.5817 31.7752 19.5769 31.7849C19.4419 32.2865 19.3454 32.817 19.2731 33.3669C19.1428 34.7415 18.7907 40.5534 22.1284 42.7239H22.1332V42.7142C22.3888 42.8686 22.6493 43.0085 22.9194 43.1339C22.9242 43.1339 22.929 43.1387 22.9339 43.1387C24.9307 44.0503 27.2072 44.0261 29.1365 43.1628C30.4629 42.6467 31.6783 41.4747 32.368 39.8637C33.5545 37.0952 32.7442 34.0904 30.5593 33.1547C28.3744 32.219 25.6397 33.7045 24.4532 36.473C24.2265 36.9988 24.0721 37.5341 23.9901 38.0647C23.9226 38.4746 23.3631 38.5615 23.204 38.1756C22.6734 36.9023 22.4853 35.4457 22.7651 33.9216C23.3342 30.8444 25.876 28.4086 28.9725 27.9601C31.6253 27.5742 34.0513 28.5919 35.643 30.3717C37.0562 31.8524 37.9388 34.1241 37.7025 37.346C36.8391 49.1194 34.3697 67.5103 23.9178 73.6695C23.4355 73.9541 22.9387 74.1952 22.4323 74.393C20.8888 75.0731 19.1911 75.4541 17.4065 75.4541C14.3582 75.4541 11.4064 75.0393 9.18776 73.2354C5.66683 70.3753 4.67807 66.4588 4.67807 62.3639C4.67807 57.9555 6.8051 54.0632 10.0559 51.695C10.6926 51.232 11.5897 51.4635 11.8936 52.1918C12.3855 53.3638 13.1428 54.5696 14.2425 55.5681C17.339 58.3751 20.9178 58.7417 22.9097 56.687C24.9017 54.6323 24.4725 51.0487 21.458 48.1259C21.0287 47.7111 20.5801 47.3493 20.1219 47.0262C20.0255 46.9586 19.929 46.8959 19.8326 46.8284C19.7264 46.7609 19.6203 46.6934 19.5094 46.6258C19.4274 46.5776 19.3454 46.5294 19.2634 46.4812C18.3132 45.9458 17.339 45.5985 16.4081 45.4586C15.1637 45.2078 13.7457 45.1355 12.1492 45.3139C0.428838 46.6066 -3.23197 65.8463 3.01407 74.1759C7.42729 80.0602 16.3213 81.3143 23.286 78.7097L23.2811 78.7194C39.8488 73.5972 41.3536 46.1773 41.3536 46.1773C41.3536 46.1773 45.6608 58.9539 48.82 60.1067C51.9791 61.2546 54.2026 52.8574 57.4342 44.2432C60.6657 35.629 61.4519 34.6933 61.4519 37.4232C61.4519 38.4988 61.3844 41.2287 61.3313 44.2914C60.6368 52.2111 61.476 55.6935 62.4841 57.1983C62.6046 57.4202 62.7349 57.5986 62.8747 57.7047C62.8892 57.7144 63.5982 58.3366 65.05 58.2739C67.0082 58.2546 69.3668 57.2996 70.6835 56.3783C70.6883 56.3735 70.6931 56.3687 70.7028 56.3639C70.7076 56.3639 70.7076 56.3591 70.7124 56.3542C71.3202 55.8864 71.9231 55.3221 72.5067 54.6516C75.0967 51.6613 76.6739 49.1821 77.5372 47.8027C77.5372 47.8027 83.7978 52.9539 93.092 49.6259C93.8589 49.3895 94.5969 49.0809 95.2963 48.7046C95.3156 48.695 95.3348 48.6853 95.359 48.6757V48.6709C95.6339 48.5214 95.8992 48.3718 96.1644 48.203C96.2175 48.1741 96.2561 48.1596 96.2561 48.1596L96.2609 48.1452C99.2272 46.2207 101.359 43.1097 102.005 39.4634C102.01 39.4586 102.02 39.4441 102.02 39.4393C102.652 36.0389 102.531 33.3428 101.947 31.1964C103.501 29.2913 106.158 26.407 106.158 28.7897C106.158 28.9103 106.158 29.0453 106.158 29.1755C106.148 29.5324 105.743 39.4586 105.787 41.3203C105.811 42.3959 106.554 43.5583 107.644 43.7126C107.648 43.7126 109.544 43.8236 110.214 43.7946C110.475 43.7898 110.726 43.785 110.962 43.7802C112.872 43.7898 114.29 44.0599 114.994 41.9522C115.163 41.5133 115.284 40.9682 115.341 40.2882C115.433 39.5647 115.486 38.6965 115.496 37.6451C115.626 33.9553 115.718 27.0292 116.938 26.788C118.443 26.4938 118.177 31.592 118.264 36.5405C118.351 41.494 119.923 41.7592 120.724 42.0342C123.227 42.8927 127.322 43.1966 131.846 37.6692C131.846 37.6692 133.105 42.4007 139.752 42.502C146.195 42.5985 149.861 39.4538 152.138 37.0615C152.007 38.5808 151.988 39.9216 152.152 40.9152C152.784 44.6676 159.093 45.7143 163.742 40.4618C164.63 43.8622 167.225 47.0262 171.754 47.4699C173.389 47.7159 181.709 47.5326 189.585 39.3525C191.196 37.6788 193.598 35.846 192.03 38.8798C191.915 39.1017 191.779 39.3428 191.64 39.5936C191.587 39.6853 191.533 39.7769 191.476 39.8782C189.421 43.4088 185.408 48.9458 185.408 48.9458C185.408 48.9458 184.414 50.6243 186.3 51.5841C188.186 52.5439 192.402 54.8397 194.186 52.4089C195.971 49.9731 200.49 43.4715 200.49 43.4715C200.558 43.1966 204.088 37.7271 204.296 39.8734C204.503 42.0197 205.265 44.8557 208.796 42.2946C212.326 39.7335 214.68 36.6804 211.776 35.2286ZM175.096 30.7431C176.065 29.7591 177.204 29.3058 177.643 29.735C178.082 30.1643 177.647 31.3122 176.678 32.301C175.709 33.2849 174.57 33.7383 174.131 33.309C173.692 32.8797 174.127 31.7318 175.096 30.7431ZM92.8847 37.6161C92.5567 42.092 90.6226 45.5985 88.5727 45.449C86.518 45.2995 85.1193 41.547 85.4521 37.0711C85.7801 32.5952 87.7142 29.0887 89.7641 29.2382C91.8139 29.3877 93.2126 33.1402 92.8847 37.6161Z" fill="#1B2FA2"/>
  <path d="M118.062 13.3313C118.062 13.3313 120.02 7.28782 128.837 6.08684C130.742 5.82639 132.107 6.20742 133.028 6.93573C133.216 7.05631 133.394 7.2203 133.563 7.44216C133.568 7.44699 133.573 7.45663 133.578 7.46146C133.804 7.73638 133.993 8.03542 134.137 8.35857C134.832 9.71871 134.706 10.8473 134.446 11.5853V11.5901C134.456 11.5949 134.456 11.5949 134.446 11.5949C134.446 11.5949 134.441 11.6142 134.431 11.6335C134.224 12.193 133.959 12.5162 133.959 12.5162C133.144 13.7364 131.137 15.7188 126.748 15.5837C123.372 15.4342 121.327 16.4374 120.618 17.103C118.24 19.2493 115.635 18.5596 118.062 13.3313Z" fill="#67B3E6"/>
  <path d="M111.975 14.0741C111.975 14.0741 110.017 8.03062 101.2 6.82964C99.2948 6.56919 97.9299 6.95022 97.0086 7.67853C96.8205 7.79911 96.6421 7.96309 96.4733 8.18496C96.4684 8.19461 96.4636 8.19943 96.4588 8.20425C96.2321 8.47918 96.044 8.77821 95.8993 9.10137C95.1999 10.4615 95.3302 11.5901 95.5906 12.3281V12.3329C95.581 12.3377 95.581 12.3377 95.5906 12.3377C95.5906 12.3377 95.5954 12.357 95.6051 12.3763C95.8077 12.9358 96.0777 13.259 96.0777 13.259C96.8929 14.4792 98.8993 16.4616 103.288 16.3265C106.665 16.177 108.71 17.1802 109.419 17.8458C111.801 19.9921 114.401 19.3024 111.975 14.0741Z" fill="#67B3E6"/>
  <path d="M119.388 6.10616C119.388 6.08687 119.393 6.0724 119.393 6.05311C119.393 6.03864 119.398 6.01935 119.398 6.00488C119.398 5.98558 119.398 5.96147 119.393 5.94218C119.403 5.68655 119.398 5.4068 119.378 5.10776C119.205 1.19615 116.446 0.289392 115.718 0.12058C115.708 0.115757 115.698 0.115757 115.689 0.115757C115.607 0.0964639 115.558 0.0916407 115.549 0.0868175C115.293 0.0337624 115.042 0 114.782 0C114.517 0 114.266 0.0337624 114.015 0.0916407V0.0868175C114.015 0.0868175 109.901 0.655954 110.171 5.99041C110.171 5.99523 110.171 6.00005 110.171 6.00488C110.171 6.05793 110.229 6.82964 110.263 6.98881V6.99363C110.263 6.99846 110.267 7.00328 110.267 7.0081C110.364 7.42772 110.552 7.99203 110.788 8.63352C111.049 9.33288 111.367 10.1142 111.685 10.8667L111.69 10.8763C112.447 12.6705 113.214 14.3056 113.248 14.3056C113.354 14.3056 115.018 18.6609 116.031 15.55C116.33 14.6384 118.173 10.5435 118.997 7.8811C118.997 7.8811 119.118 7.62065 119.229 7.16727C119.248 7.10939 119.301 6.84894 119.306 6.78141C119.325 6.67048 119.34 6.54507 119.354 6.41967C119.369 6.29909 119.383 6.1978 119.388 6.10616Z" fill="#67B3E6"/>
  <path opacity="0.5" d="M118.887 14.9085C118.887 14.9085 120.652 9.46792 128.586 8.38753C130.298 8.15602 131.528 8.49364 132.358 9.14959C132.527 9.2557 132.691 9.40522 132.84 9.60297C132.845 9.6078 132.85 9.61744 132.855 9.62227C133.057 9.86825 133.226 10.1383 133.356 10.4277C133.559 10.8232 133.679 11.1995 133.747 11.5467C133.882 10.9052 133.863 10.0515 133.356 9.06278C133.226 8.77338 133.057 8.49846 132.855 8.2573C132.85 8.25248 132.845 8.24766 132.84 8.23801C132.691 8.03544 132.527 7.89074 132.358 7.78463C131.528 7.12867 130.298 6.78623 128.586 7.02256C120.652 8.10296 118.887 13.5435 118.887 13.5435C118.062 15.3185 117.883 16.5098 118.096 17.2043C118.211 16.5821 118.457 15.8249 118.887 14.9085Z" fill="white"/>
  <path opacity="0.5" d="M96.8253 11.1031C96.9555 10.8137 97.1243 10.5436 97.3269 10.2976C97.3317 10.2928 97.3366 10.2831 97.3366 10.2783C97.4861 10.0757 97.6501 9.93104 97.8189 9.82493C98.6485 9.16897 99.8784 8.82653 101.591 9.06286C109.525 10.1433 111.29 15.5838 111.29 15.5838C111.715 16.5002 111.965 17.2623 112.081 17.8797C112.293 17.1851 112.115 15.9938 111.29 14.2189C111.29 14.2189 109.525 8.77829 101.591 7.6979C99.8784 7.46638 98.6485 7.80401 97.8189 8.45996C97.6501 8.56607 97.4861 8.71559 97.3366 8.91334C97.3317 8.91817 97.3269 8.92781 97.3269 8.93264C97.1195 9.17862 96.9555 9.44872 96.8253 9.73811C96.3189 10.7317 96.2996 11.5806 96.4346 12.2221C96.5021 11.87 96.6227 11.4986 96.8253 11.1031Z" fill="white"/>
  <path opacity="0.5" d="M114.584 14.5274C114.555 14.5274 113.866 13.0563 113.186 11.4406L113.181 11.4309C112.891 10.7508 112.607 10.0467 112.375 9.41964C112.163 8.84086 111.994 8.3296 111.903 7.95339C111.903 7.94857 111.903 7.94857 111.898 7.94375V7.93892C111.864 7.79905 111.816 7.10451 111.816 7.05628C111.816 7.05145 111.816 7.04663 111.816 7.04663C111.575 2.24755 115.274 1.73629 115.274 1.73629C115.501 1.68806 115.727 1.6543 115.969 1.6543C116.205 1.6543 116.432 1.68806 116.653 1.73629C116.663 1.73629 116.706 1.74594 116.779 1.76041C116.788 1.76523 116.798 1.76523 116.808 1.76523C116.914 1.78935 117.078 1.83758 117.266 1.90511C116.62 1.39867 115.969 1.20092 115.679 1.13339C115.67 1.12857 115.66 1.12857 115.655 1.12857C115.583 1.1141 115.539 1.10446 115.53 1.10446C115.308 1.05622 115.076 1.02246 114.845 1.02246C114.608 1.02246 114.377 1.05622 114.155 1.10446V1.09963C114.155 1.09963 110.451 1.61089 110.697 6.41479C110.697 6.41962 110.697 6.42444 110.697 6.42444C110.697 6.47267 110.745 7.16721 110.779 7.30708V7.31191C110.779 7.31673 110.779 7.31673 110.784 7.32155C110.87 7.69776 111.039 8.20902 111.256 8.7878C111.488 9.41964 111.777 10.119 112.062 10.7991L112.067 10.8087C112.747 12.4197 113.441 13.8907 113.465 13.8907C113.547 13.8907 114.546 16.476 115.409 15.9454C114.96 15.3329 114.628 14.5274 114.584 14.5274Z" fill="white"/>
</svg>