<svg xmlns="http://www.w3.org/2000/svg" width="157" height="100" viewBox="0 0 157 100" fill="none">
  <path d="M156.798 58.1016L152.235 31.7748C152.041 30.7115 151.303 28.0587 148.698 26.4035C147.36 25.5521 145.076 24.7117 141.773 25.5338C140.926 25.7458 136.946 26.725 136.946 26.725C135.631 27.0502 134.557 28.0002 134.074 29.2718L132.43 33.5981C132.123 32.5165 131.579 31.614 130.804 30.9088C129.262 29.502 127.154 29.122 124.538 29.7724L120.365 30.8138C118.764 31.2121 117.529 32.5714 117.284 34.1974L116.868 36.9744C116.572 36.1668 116.104 35.4068 115.384 34.7528C113.842 33.3496 111.734 32.966 109.118 33.6164L104.945 34.6578C104.364 34.8039 103.812 35.0853 103.337 35.4799C101.58 35.4287 99.6504 35.6626 97.5969 36.1742C94.2901 37 91.323 38.2825 88.7616 39.9999C88.8457 39.5431 88.853 39.0681 88.7689 38.5894L84.2051 12.2626C84.0115 11.1993 83.2734 8.54657 80.6681 6.89132C79.3307 6.03995 77.0434 5.20319 73.7439 6.02168C72.8998 6.23361 68.9754 7.19826 68.917 7.21287C67.6015 7.53807 66.5273 8.4881 66.045 9.75968L65.1169 12.2005C65.1278 10.443 64.7295 8.54291 63.1912 7.14345C61.8941 5.96322 60.184 5.50647 58.1012 5.78783C58.0793 4.07777 57.3997 2.48465 56.2085 1.41769C54.8017 0.153421 52.887 -0.292362 50.9541 0.189961L40.7522 2.73312C39.1372 3.13505 37.8985 4.50894 37.6683 6.15322L37.3175 8.64522C37.2079 9.4089 37.2262 10.158 37.365 10.8851L36.6817 11.0568C35.074 11.4588 33.8353 12.8254 33.5978 14.4623L28.2082 51.8314C27.0645 51.3966 25.7856 51.1335 24.4008 51.0531C22.4788 50.9398 20.3412 51.1846 17.8711 51.8021C16.6873 52.0981 15.2439 52.5 13.5704 53.0043C11.875 53.5159 10.1394 54.1151 8.41104 54.7911C7.04081 55.3282 6.05424 56.5559 5.83134 57.9993L0.0471261 95.5474C-0.153842 96.8482 0.295595 98.1417 1.24928 99.0077C1.98738 99.68 2.95568 100.031 3.96783 99.9979C4.25283 99.9906 4.53784 99.9504 4.81189 99.881L13.501 97.7142C15.1124 97.3122 22.2595 95.5291 23.6663 95.182L32.4249 92.9969C33.7695 92.6607 34.8803 91.6376 35.3298 90.3222L37.3139 84.5161L38.5854 84.1982L39.0641 87.0738C39.2395 88.1335 39.857 89.0762 40.7522 89.6572C41.6475 90.2382 42.7656 90.4172 43.8252 90.1541L60.3338 86.0361C61.9306 85.6378 63.1693 84.2785 63.4141 82.6562L63.8964 79.4772L64.894 81.6733C65.6576 83.3504 67.5358 84.2383 69.3591 83.7853L76.2687 82.0606C77.8692 81.6623 79.1079 80.303 79.349 78.6734L79.8569 75.2861C79.9848 75.4104 80.1163 75.531 80.2479 75.6442C81.8629 77.062 83.9165 78.001 86.35 78.4395C88.6264 78.8488 91.3157 78.6807 94.2718 77.9462C96.3582 77.4237 98.324 76.7148 100.166 75.8087C100.703 75.8854 101.178 75.8489 101.649 75.7283L109.808 73.693C111.409 73.2947 112.644 71.9355 112.889 70.3058V70.2985C113.06 70.5579 113.269 70.7991 113.503 71.011C114.456 71.8733 115.786 72.2022 117.062 71.8807L133.921 67.6786C135.266 67.3424 136.376 66.3193 136.829 65.0039L138.814 59.1978L140.085 58.8799L140.564 61.7555C140.739 62.8188 141.357 63.7579 142.248 64.3389C143.14 64.9199 144.262 65.0953 145.321 64.8358L153.729 62.7384C155.815 62.2305 157.16 60.1916 156.798 58.1016Z" fill="white"/>
  <path d="M37.533 14.8971C37.533 14.8971 39.93 14.2979 42.0493 13.7717C44.0006 13.2858 44.7277 14.0056 45.7216 16.0481L50.8298 29.1037L53.5374 10.907C53.5374 10.907 55.6859 10.3699 57.776 9.85103C60.5639 9.15678 61.5688 10.348 60.9988 13.9946L56.2669 46.5112L49.3536 48.2359L43.3465 29.6409L40.3283 50.4867L32.0959 52.5402L37.533 14.8971Z" fill="#E1251B"/>
  <path d="M53.735 9.13487L43.7743 11.6196C42.2104 12.0105 41.0119 10.8011 41.2567 9.07276L41.6075 6.58076L51.8093 4.0376C53.249 3.67951 54.3488 4.79032 54.1259 6.37979L53.735 9.13487Z" fill="#E1251B"/>
  <path d="M80.31 13.0922C80.0323 11.5794 78.6218 8.86453 74.5952 9.86571C73.7438 10.0776 69.7537 11.0606 69.7537 11.0606L56.2925 46.504L65.051 44.3189L67.7659 36.3825L75.2931 34.5044L76.455 41.4761L84.8628 39.3787L80.31 13.0922ZM69.9473 30.2073L73.4442 20.1882L74.6719 29.0307L69.9473 30.2073Z" fill="#E1251B"/>
  <path d="M99.3873 67.0684C98.3167 67.6969 97.1402 68.1755 95.854 68.4934C94.4033 68.8552 93.1756 68.9027 92.1598 68.6323C91.1477 68.3655 90.3365 67.8796 89.7299 67.1743C89.1234 66.4691 88.6959 65.5885 88.451 64.5325C88.2062 63.4765 88.1149 62.3365 88.1806 61.1051C88.2683 59.4572 88.5789 57.7654 89.1161 56.0261C89.6495 54.2868 90.4132 52.6499 91.3998 51.1152C92.3864 49.5805 93.6031 48.2322 95.0428 47.0703C96.4824 45.9083 98.1633 45.0898 100.082 44.6111C101.094 44.359 101.996 44.264 102.793 44.3188L103.52 39.4481C102.044 39.3531 100.356 39.5394 98.4483 40.0145C95.2364 40.8147 92.4594 42.0863 90.1209 43.8219C87.7787 45.5612 85.8421 47.5489 84.3038 49.7852C82.7655 52.025 81.6218 54.3891 80.8691 56.8848C80.1164 59.3804 79.7437 61.7957 79.7437 64.1342C79.7437 65.8808 79.9994 67.4922 80.5146 68.9684C81.0262 70.4483 81.8301 71.6651 82.9226 72.6224C84.0151 73.5834 85.4329 74.2192 87.1758 74.5298C88.9187 74.844 91.0015 74.6978 93.4277 74.0913C95.3059 73.6236 97.0378 72.9914 98.62 72.2022L99.3873 67.0684Z" fill="#E1251B"/>
  <path d="M56.1868 50.8741C56.1868 50.8741 58.5838 50.2748 60.7031 49.7487C62.6543 49.2627 63.3814 49.9825 64.3753 52.0251L69.4835 65.0807L72.1911 46.884C72.1911 46.884 74.3396 46.3468 76.4297 45.828C79.2177 45.1337 80.2225 46.3249 79.6525 49.9715L75.4285 78.213L68.5152 79.9377L61.9966 65.6215L59.4899 82.1885L51.2576 84.242L56.1868 50.8741Z" fill="#E1251B"/>
  <path d="M12.6569 93.8629L14.9004 79.5869L16.8297 79.1046C18.8504 78.6003 20.7139 77.8987 22.413 76.9926C24.1121 76.09 25.5773 74.95 26.8014 73.5688C28.0254 72.1913 28.9755 70.5762 29.6515 68.7237C30.3238 66.8711 30.6636 64.7408 30.6636 62.3292C30.6636 60.9115 30.4261 59.6655 29.9511 58.5949C29.4761 57.5243 28.7489 56.6839 27.766 56.0663C26.7868 55.4525 25.5444 55.1017 24.0426 55.014C22.5409 54.9263 20.765 55.1382 18.7115 55.6498C17.5788 55.9311 16.2085 56.3148 14.5971 56.8008C12.9894 57.2831 11.3707 57.8458 9.74834 58.4816L3.96777 96.0297L12.6569 93.8629ZM17.3815 62.8225C17.5642 62.7458 17.787 62.6727 18.0465 62.6069C18.3059 62.5412 18.5142 62.49 18.6677 62.4535C19.5885 62.2233 20.3046 62.3402 20.8271 62.8079C21.346 63.272 21.6091 63.9845 21.6091 64.9418C21.6091 66.988 21.2181 68.6287 20.4362 69.8637C19.6542 71.0987 18.6823 71.8624 17.5167 72.1511L15.9089 72.553L17.3815 62.8225Z" fill="#E1251B"/>
  <path d="M125.381 33.62C123.507 34.0877 121.589 34.5664 121.212 34.6614L119.203 48.1007L111.95 49.9094L113.192 41.6112C113.762 37.9646 112.761 36.7697 109.969 37.4676C108.095 37.9354 106.176 38.414 105.8 38.509L100.809 71.8916L108.968 69.8563L111.084 55.7119L118.337 53.9032L116.221 68.0476L124.38 66.0124L128.604 37.7709C129.174 34.117 128.173 32.9258 125.381 33.62Z" fill="#E1251B"/>
  <path d="M148.332 32.6116C148.055 31.0988 146.644 28.3839 142.618 29.3851C141.766 29.5971 137.776 30.58 137.776 30.58L124.315 66.0234L133.073 63.8383L135.788 55.9019L143.316 54.0238L144.477 60.9955L152.885 58.8982L148.332 32.6116ZM137.97 49.7231L141.467 39.7039L142.694 48.5465L137.97 49.7231Z" fill="#E1251B"/>
  <path d="M46.8361 57.9152C46.5584 56.4024 45.148 53.6875 41.1213 54.6887C40.2699 54.9006 36.2798 55.8836 36.2798 55.8836L22.8186 91.327L31.5771 89.1419L34.292 81.2055L41.8192 79.3274L42.9812 86.2991L51.3889 84.2017L46.8361 57.9152ZM36.4735 75.0303L39.9703 65.0111L41.198 73.8537L36.4735 75.0303Z" fill="#E1251B"/>
  <path d="M126.142 14.9739H126.146L126.441 15.7302L126.142 14.9739Z" fill="#E63027"/>
</svg>