<svg xmlns="http://www.w3.org/2000/svg" width="74" height="50" viewBox="0 0 74 50" fill="none">
  <path d="M51.2886 15.6168C51.5473 15.6168 51.7967 15.5151 51.9907 15.3212L58.3186 8.99323C60.3972 6.91472 60.3972 3.53367 58.3186 1.45516C58.023 1.15954 57.6905 0.900885 57.3394 0.679176C55.9907 -0.152229 54.3279 -0.216895 52.8868 0.494419C52.2494 0.817743 51.7043 1.26116 51.2794 1.79695C50.8729 1.27964 50.3556 0.845458 49.7459 0.531371C48.3695 -0.189181 46.7436 -0.179943 45.4041 0.57756C45.0069 0.799268 44.6466 1.06717 44.3141 1.39049C43.2979 2.3697 42.7344 3.69995 42.7159 5.14105C42.7067 6.60987 43.2887 8.05097 44.3141 9.07637L50.5681 15.3212C50.7621 15.5151 51.0207 15.6168 51.2702 15.6168H51.2886Z" fill="#1AA9E3"/>
  <path d="M73.8747 20.0695C73.7177 18.6284 72.9787 17.2797 71.8332 16.3928C69.0064 14.1757 65.0526 14.185 62.2258 16.4021L55.1034 22.0094C53.8656 20.5591 52.0642 19.5983 50.0226 19.4875L45.9025 19.2658C43.6023 19.1365 41.3575 18.6746 39.2143 17.8893C27.0019 13.3905 19.4269 15.8293 16.3969 19.6076C14.7525 21.6584 12.6186 23.4875 11.2145 24.596C9.51469 22.8963 6.78029 22.6376 4.80339 24.1249L1.9489 26.2773C0.905021 27.0625 0.230659 28.2173 0.0459025 29.5106C-0.138854 30.8039 0.193707 32.0972 0.988162 33.141L12.2214 48.0509C13.0066 49.0948 14.1613 49.7691 15.4546 49.9539C15.6856 49.9816 15.9165 50.0001 16.1475 50.0001C17.2006 50.0001 18.226 49.6583 19.0851 49.0116L21.9396 46.8592C22.9835 46.074 23.6671 44.9193 23.8426 43.626C23.9811 42.6375 23.8149 41.6491 23.3807 40.7715C24.7109 40.1987 26.8079 39.6814 29.3576 40.3743C29.6532 40.4574 29.9857 40.559 30.3553 40.6699C32.6001 41.335 36.1751 42.4066 40.7386 42.4066C48.8679 42.4066 60.1381 39.0348 72.6553 24.051C73.5884 22.9332 74.0133 21.5198 73.8655 20.0695H73.8747ZM19.9073 43.0717C19.8888 43.2103 19.8149 43.4782 19.5562 43.6722L16.7017 45.8246C16.4431 46.0186 16.1659 46.0186 16.0274 46.0001C15.8888 45.9816 15.6209 45.9077 15.4269 45.6491L4.19369 30.7392C3.9997 30.4805 3.9997 30.2034 4.01817 30.0648C4.03665 29.9263 4.11055 29.6584 4.36921 29.4644L7.2237 27.3119C7.62093 27.0071 8.19368 27.0902 8.49853 27.4875L19.7317 42.3973C19.9257 42.656 19.9257 42.9331 19.9073 43.0717ZM69.6068 21.4921C51.7409 42.8869 37.57 38.656 31.5192 36.8454C31.122 36.7253 30.7617 36.6237 30.4384 36.5313C26.2998 35.3951 22.9557 36.5036 21.0435 37.4921L13.6902 27.7369C15.2606 26.5083 17.644 24.4575 19.5377 22.1018C21.7548 19.3305 28.2767 18.1111 37.8471 21.6399C40.3598 22.5637 42.9926 23.1087 45.6901 23.2565L49.8102 23.4782C51.5099 23.5706 52.8494 24.984 52.8494 26.6838C52.8494 26.7946 52.7755 26.887 52.6646 26.9055C49.0249 27.4413 40.0827 28.596 35.5377 27.7646C34.4569 27.5614 33.413 28.2819 33.2098 29.372C33.0158 30.4528 33.7271 31.4967 34.8171 31.6999C36.1936 31.9493 37.8564 32.051 39.6485 32.051C44.3044 32.051 49.8009 31.3674 53.2374 30.8685C55.2882 30.5637 56.8401 28.7715 56.8401 26.7023C56.8401 26.3974 56.8124 26.0926 56.7755 25.7969L64.7016 19.5614C66.078 18.4806 67.9995 18.4806 69.3759 19.5614C69.6807 19.7923 69.8655 20.1341 69.9025 20.5129C69.9394 20.8824 69.8378 21.2334 69.5976 21.5198L69.6068 21.4921Z" fill="#1AA9E3"/>
</svg>