<svg xmlns="http://www.w3.org/2000/svg" width="56" height="80" viewBox="0 0 56 80" fill="none">
  <path d="M55.8245 35.7511C55.6825 34.9076 55.4061 34.0756 55.1288 33.3016L54.9046 32.6861C54.6998 32.1276 54.5065 31.6001 54.3471 31.0783C54.1171 30.3188 54.0089 29.7275 54.0089 29.2153C54.0089 28.7032 54.1162 28.1109 54.3471 27.3534C54.5056 26.8306 54.6998 26.304 54.9046 25.7455L55.1288 25.129C55.4061 24.3551 55.6825 23.5231 55.8236 22.6796C55.9946 21.6698 55.9472 20.7876 55.6796 19.9827C55.411 19.1759 54.9201 18.4454 54.179 17.7478C53.5548 17.1603 52.8137 16.6578 52.1701 16.2433L51.5942 15.8771C51.1208 15.5785 50.6744 15.2954 50.2618 15.0007C49.6598 14.5707 49.253 14.1987 48.9834 13.8306C48.7138 13.4624 48.4829 12.9658 48.2577 12.2662C48.0993 11.7753 47.965 11.2545 47.822 10.7028L47.6616 10.0882C47.4558 9.31522 47.2161 8.49487 46.8576 7.73732C46.4277 6.82421 45.8894 6.13913 45.2131 5.64344C44.5376 5.14871 43.7221 4.84048 42.7211 4.70327C41.8872 4.58925 41.0301 4.60568 40.2281 4.63949L39.5904 4.67042C39.0145 4.6994 38.4686 4.72549 37.9497 4.72259C37.1999 4.71583 36.6423 4.64433 36.195 4.49456C35.7486 4.34575 35.25 4.0665 34.6267 3.61526C34.2161 3.31765 33.8083 2.98912 33.3976 2.65866C33.1928 2.4944 32.9879 2.32917 32.7831 2.1678C32.1686 1.68467 31.4342 1.13391 30.6399 0.720346C28.7924 -0.240115 27.1315 -0.240115 25.2849 0.720346C24.4897 1.13391 23.7553 1.68371 23.1427 2.16684C22.9369 2.3282 22.733 2.49343 22.5282 2.6577C22.1175 2.98816 21.7088 3.31765 21.2981 3.61526C20.6739 4.0665 20.1763 4.34672 19.7299 4.49456C19.2816 4.64336 18.724 4.71583 17.9752 4.72259C17.4592 4.72742 16.9094 4.70037 16.3335 4.67042L15.6977 4.63949C14.8938 4.60568 14.0377 4.58925 13.2038 4.70327C12.2018 4.84048 11.3863 5.14871 10.7118 5.64344C10.0354 6.13913 9.49722 6.82421 9.06627 7.73732C8.70778 8.49777 8.46815 9.31716 8.26234 10.0892L8.10387 10.695C7.96086 11.2497 7.82559 11.7744 7.66616 12.2681C7.44005 12.9677 7.21008 13.4643 6.9405 13.8325C6.67091 14.2006 6.26411 14.5726 5.66213 15.0026C5.24664 15.2993 4.79733 15.5833 4.32 15.8848L3.7528 16.2452C3.07642 16.682 2.36429 17.1661 1.74395 17.7497C1.00283 18.4473 0.512937 19.1778 0.244317 19.9837C-0.0233369 20.7876 -0.0706837 21.6698 0.100344 22.6805C0.242384 23.5241 0.518734 24.356 0.79605 25.129L1.02409 25.7561C1.22797 26.3108 1.41929 26.8354 1.57775 27.3534C1.80772 28.1128 1.91595 28.7042 1.91595 29.2163C1.91595 29.7284 1.80869 30.3207 1.57775 31.0783C1.41929 31.5991 1.227 32.1238 1.02312 32.6803L0.797016 33.3026C0.5197 34.0756 0.244316 34.9076 0.10131 35.7521C-0.069718 36.7628 -0.0223711 37.644 0.245283 38.4479C0.513903 39.2538 1.0038 39.9853 1.74588 40.6829C2.37105 41.2714 3.11217 41.7738 3.7557 42.1874L4.32483 42.5497C4.80023 42.8502 5.24954 43.1333 5.6631 43.429C6.26508 43.86 6.67187 44.232 6.94146 44.5992C7.21105 44.9673 7.44198 45.464 7.66712 46.1645C7.82655 46.6573 7.96183 47.18 8.10484 47.7337L8.2633 48.3424C8.46912 49.1145 8.70875 49.9348 9.06723 50.6934C9.43827 51.4799 9.89435 52.0886 10.4451 52.5611L3.86006 74.0652C3.70063 74.586 3.88518 75.1513 4.32193 75.4769C4.75965 75.8035 5.3539 75.818 5.80707 75.5175L14.0638 70.0359L17.8351 79.2009C18.0341 79.686 18.5066 80 19.0274 80C19.0477 80 19.068 80 19.0873 79.999C19.6313 79.9739 20.1019 79.6087 20.2613 79.0879L26.6425 58.2485C27.086 58.3664 27.5238 58.4254 27.9624 58.4254C28.4011 58.4254 28.8388 58.3674 29.2823 58.2485L35.6635 79.0879C35.823 79.6087 36.2926 79.9739 36.8375 79.999C36.8578 80 36.8781 80 36.8974 80C37.4183 80 37.8907 79.686 38.0898 79.2009L41.8611 70.0359L50.1178 75.5175C50.5719 75.819 51.1662 75.8035 51.6029 75.4769C52.0397 75.1513 52.2242 74.586 52.0648 74.0652L45.4797 52.5611C46.0295 52.0877 46.4866 51.4799 46.8567 50.6943C47.2142 49.9358 47.4548 49.1154 47.6606 48.3424L47.822 47.7231C47.964 47.1733 48.0983 46.6534 48.2568 46.1635C48.4829 45.464 48.7129 44.9673 48.9824 44.5992C49.252 44.232 49.6588 43.86 50.2608 43.429C50.6744 43.1333 51.1227 42.8502 51.5981 42.5497L52.1682 42.1874C52.8446 41.7516 53.5558 41.2685 54.178 40.6829C54.9182 39.9862 55.409 39.2548 55.6786 38.4479C55.9482 37.6431 55.9946 36.7618 55.8245 35.7511ZM18.8477 74.8846L15.8504 67.6C15.7035 67.2425 15.4049 66.97 15.0349 66.8569C14.9112 66.8193 14.7836 66.8009 14.657 66.8009C14.4058 66.8009 14.1575 66.8743 13.943 67.0164L7.38014 71.3742L12.8038 53.6617C12.9323 53.6868 13.0656 53.7081 13.2019 53.7274C14.0338 53.8414 14.8918 53.826 15.6958 53.7912L16.3219 53.7612C16.9007 53.7322 17.4428 53.7052 17.9742 53.709C18.724 53.7158 19.2816 53.7873 19.7289 53.9371C20.1753 54.0859 20.6739 54.3651 21.2972 54.8164C21.7088 55.114 22.1175 55.4435 22.5282 55.7749C22.7321 55.9392 22.936 56.1034 23.1408 56.2638C23.3022 56.3914 23.4732 56.5228 23.65 56.6552C23.7099 56.7006 23.7737 56.7441 23.8355 56.7895C23.9583 56.8793 24.0819 56.9682 24.2114 57.0571C24.2385 57.0755 24.2626 57.0948 24.2906 57.1132L18.8477 74.8846ZM41.98 67.0164C41.6582 66.8028 41.2572 66.7449 40.8891 66.8579C40.5199 66.971 40.2204 67.2434 40.0735 67.601L37.0752 74.8856L31.6333 57.1122C31.6603 57.0939 31.6845 57.0745 31.7115 57.0562C31.8429 56.9663 31.9676 56.8755 32.0932 56.7847C32.1521 56.7412 32.214 56.6987 32.2719 56.6552C32.4497 56.5218 32.6208 56.3904 32.7831 56.2629C32.9889 56.1015 33.1928 55.9363 33.3967 55.773C33.8073 55.4425 34.2161 55.113 34.6277 54.8154C35.2509 54.3642 35.7495 54.0849 36.1959 53.9361C36.6423 53.7873 37.1999 53.7148 37.9497 53.7081C38.4763 53.7033 39.0232 53.7313 39.602 53.7603L40.2281 53.7902C40.9499 53.8202 41.7152 53.8318 42.466 53.7516C42.551 53.7429 42.637 53.738 42.722 53.7264C42.724 53.7264 42.7259 53.7255 42.7288 53.7255C42.8631 53.7071 42.9936 53.6859 43.1201 53.6617L48.5428 71.3742L41.98 67.0164ZM53.232 37.6315C53.1016 38.0228 52.833 38.4064 52.4107 38.8035C51.9411 39.2461 51.3459 39.648 50.7729 40.0172L50.2212 40.3679C49.7361 40.6742 49.2346 40.9911 48.7621 41.3293C47.9302 41.9245 47.3388 42.4782 46.9021 43.0734C46.4644 43.6706 46.1146 44.4011 45.8015 45.3702C45.6199 45.9326 45.4691 46.5143 45.3242 47.0766L45.1676 47.6767C44.9928 48.3328 44.7937 49.0188 44.5232 49.5918C44.2806 50.1059 44.0072 50.4701 43.6873 50.7049C43.5849 50.7793 43.468 50.8431 43.3424 50.9011C43.2371 50.9504 43.1221 50.9929 42.9994 51.0306C42.9559 51.0441 42.9114 51.0576 42.8651 51.0692C42.7114 51.1088 42.551 51.1446 42.3694 51.1687C41.7384 51.2557 41.0195 51.2403 40.3383 51.2113L39.7305 51.1823C39.1392 51.1523 38.5304 51.1195 37.9265 51.1272C36.8984 51.1359 36.0896 51.2499 35.3794 51.4866C34.675 51.7215 33.9552 52.1147 33.1136 52.7244C32.6672 53.0472 32.2236 53.4037 31.7782 53.7622C31.5811 53.9207 31.3849 54.0791 31.1859 54.2357C31.0583 54.3362 30.924 54.4405 30.7858 54.5449C30.754 54.569 30.7192 54.5932 30.6863 54.6173C30.5791 54.6975 30.4718 54.7768 30.3607 54.855C30.3133 54.8889 30.2641 54.9198 30.2158 54.9526C30.1182 55.0193 30.0206 55.086 29.921 55.1478C29.8621 55.1845 29.8022 55.2174 29.7423 55.2522C29.6437 55.3101 29.5461 55.37 29.4476 55.4213C28.3538 55.9904 27.5682 55.9904 26.4744 55.4213C26.3729 55.3681 26.2705 55.3063 26.1691 55.2454C26.113 55.2125 26.0579 55.1826 26.0019 55.1478C25.9004 55.084 25.8009 55.0164 25.7014 54.9488C25.655 54.9169 25.6077 54.8879 25.5613 54.855C25.4473 54.7748 25.3371 54.6927 25.227 54.6115C25.197 54.5893 25.1661 54.5671 25.1361 54.5449C24.9979 54.4405 24.8636 54.3362 24.7361 54.2357C24.538 54.0801 24.3409 53.9216 24.1447 53.7632C23.6993 53.4047 23.2548 53.0481 22.8094 52.7254C21.9668 52.1157 21.2469 51.7224 20.5425 51.4876C19.8323 51.2509 19.0226 51.1369 17.9955 51.1282C17.9501 51.1282 17.9046 51.1272 17.8602 51.1272C17.6553 51.1272 17.4505 51.134 17.2456 51.1398C17.1828 51.1417 17.1191 51.1417 17.0563 51.1436C16.7654 51.1543 16.4765 51.1688 16.1915 51.1823L15.5847 51.2113C14.9034 51.2403 14.1855 51.2547 13.5545 51.1687H13.5526C13.5497 51.1687 13.5468 51.1678 13.5429 51.1668C13.3652 51.1427 13.2077 51.1079 13.0569 51.0692C13.0105 51.0567 12.9651 51.0441 12.9207 51.0306C12.7999 50.9939 12.6868 50.9513 12.5825 50.903C12.4559 50.8441 12.3371 50.7803 12.2346 50.7049C11.9138 50.4701 11.6404 50.1059 11.3978 49.5908C11.1273 49.0169 10.9282 48.3308 10.7534 47.6757L10.5997 47.0863C10.4538 46.5201 10.3021 45.9345 10.1195 45.3693C9.80642 44.3991 9.45663 43.6696 9.01892 43.0715C8.58217 42.4763 7.99178 41.9226 7.15984 41.3274C6.68637 40.9892 6.18488 40.6723 5.69982 40.366L5.14905 40.0162C4.60505 39.6654 3.98471 39.247 3.51124 38.8026C3.08898 38.4045 2.82036 38.0218 2.69089 37.6305C2.56044 37.2382 2.54401 36.7638 2.64257 36.1801C2.75176 35.5337 2.98656 34.8332 3.22329 34.1713L3.4436 33.5674C3.65038 33.0021 3.86489 32.4175 4.04461 31.8281C4.35188 30.8193 4.49489 29.9883 4.49489 29.2144C4.49489 28.4414 4.35189 27.6104 4.04558 26.6006C3.86682 26.0132 3.65328 25.4305 3.4465 24.8662L3.22523 24.2575C2.98849 23.5956 2.75369 22.895 2.6445 22.2486C2.54595 21.665 2.56141 21.1906 2.69282 20.7973C2.8223 20.4069 3.09092 20.0243 3.51317 19.6262C3.98277 19.1846 4.57799 18.7817 5.15098 18.4126L5.69885 18.0637C6.18488 17.7565 6.68734 17.4395 7.16177 17.1004C7.99372 16.5061 8.5841 15.9515 9.02085 15.3563C9.45857 14.7591 9.80835 14.0286 10.1214 13.0595C10.304 12.4932 10.4557 11.9067 10.6026 11.3395L10.7563 10.753C10.9302 10.0979 11.1292 9.41282 11.4007 8.83789C11.6433 8.32481 11.9158 7.96053 12.2375 7.72573C12.5583 7.49093 12.9893 7.33826 13.5555 7.26096C14.1874 7.17399 14.9054 7.18945 15.5875 7.21941L16.205 7.24936C16.7915 7.27932 17.3983 7.3054 17.9984 7.30444C19.0245 7.29574 19.8343 7.18172 20.5464 6.94499C21.2498 6.71116 21.9697 6.31692 22.8123 5.70721C23.2577 5.38448 23.7012 5.0289 24.1467 4.67042C24.3438 4.51195 24.5409 4.35348 24.74 4.19695C25.2588 3.78822 25.8714 3.32731 26.4773 3.01135C27.5701 2.44319 28.3567 2.44319 29.4505 3.01135C30.0544 3.32635 30.668 3.78725 31.1888 4.19695C31.3869 4.35348 31.5849 4.51195 31.7821 4.67138C32.2265 5.0289 32.67 5.38545 33.1155 5.70818C33.9581 6.31789 34.6779 6.71115 35.3823 6.94596C36.0935 7.18269 36.9023 7.29671 37.9294 7.3054C38.5304 7.31024 39.1353 7.28028 39.7218 7.25033L40.3402 7.22037C41.0214 7.18945 41.7394 7.17496 42.3713 7.26192C42.9366 7.33922 43.3685 7.49189 43.6893 7.72669C44.0091 7.96149 44.2835 8.32577 44.5261 8.84079C44.7966 9.41378 44.9957 10.0998 45.1705 10.7559L45.3261 11.3511C45.472 11.9154 45.6228 12.4981 45.8044 13.0614C46.1175 14.0315 46.4663 14.7611 46.905 15.3592C47.3417 15.9554 47.9331 16.509 48.7641 17.1033C49.2356 17.4405 49.7352 17.7555 50.2183 18.0618L50.7758 18.4164C51.3208 18.7672 51.9411 19.1865 52.4136 19.63C52.8349 20.0272 53.1035 20.4108 53.234 20.8011C53.3644 21.1944 53.3799 21.6689 53.2813 22.2534C53.1731 22.8989 52.9383 23.6004 52.7016 24.2613L52.4842 24.8594C52.2755 25.4266 52.0609 26.0132 51.8812 26.6055C51.5749 27.6152 51.4319 28.4452 51.4319 29.2192C51.4319 29.9922 51.5749 30.8232 51.8812 31.8329C52.0609 32.4243 52.2764 33.0108 52.4842 33.578L52.7016 34.1761C52.9383 34.838 53.1731 35.5385 53.2813 36.185C53.378 36.7647 53.3625 37.2392 53.232 37.6315ZM27.9615 11.3821C18.1278 11.3821 10.1282 19.3817 10.1282 29.2153C10.1282 39.049 18.1288 47.0486 27.9615 47.0486C37.7941 47.0486 45.7948 39.049 45.7948 29.2153C45.7948 19.3817 37.7951 11.3821 27.9615 11.3821ZM27.9615 44.4677C19.5511 44.4677 12.7081 37.6257 12.7081 29.2153C12.7081 20.805 19.5511 13.9629 27.9615 13.9629C36.3718 13.9629 43.2139 20.805 43.2139 29.2153C43.2139 37.6257 36.3718 44.4677 27.9615 44.4677ZM36.0829 26.1687L31.3376 25.3629L29.1046 21.0988C28.8813 20.6736 28.4417 20.4069 27.9615 20.4069C27.4812 20.4069 27.0416 20.6736 26.8184 21.0988L24.5854 25.3629L19.8401 26.1687C19.3666 26.2489 18.9772 26.5861 18.8293 27.0422C18.6815 27.4983 18.7984 27.9998 19.1337 28.3428L22.4982 31.7837L21.7987 36.5454C21.7291 37.0208 21.9281 37.4952 22.3175 37.7764C22.706 38.0595 23.2191 38.102 23.649 37.8885L27.9615 35.7521L32.2739 37.8885C32.4555 37.9783 32.6517 38.0228 32.8469 38.0228C33.1145 38.0228 33.3802 37.9397 33.6054 37.7764C33.9938 37.4942 34.1938 37.0198 34.1233 36.5454L33.4237 31.7837L36.7882 28.3428C37.1235 27.9998 37.2414 27.4983 37.0926 27.0422C36.9448 26.5852 36.5554 26.2489 36.0829 26.1687ZM31.1318 30.4367C30.8496 30.7246 30.7192 31.1276 30.7781 31.5266L31.2129 34.4834L28.5354 33.1567C28.174 32.978 27.7508 32.978 27.3894 33.1567L24.7119 34.4834L25.1468 31.5266C25.2047 31.1276 25.0743 30.7246 24.7931 30.4367L22.704 28.2993L25.6502 27.7988C26.0473 27.7312 26.3903 27.4819 26.5768 27.1253L27.9615 24.4787L29.3481 27.1263C29.5355 27.4828 29.8776 27.7321 30.2747 27.7998L33.2208 28.3003L31.1318 30.4367Z" fill="#1AA9E3"/>
</svg>