<svg xmlns="http://www.w3.org/2000/svg" width="78" height="70" viewBox="0 0 78 70" fill="none">
  <path d="M75.7263 25.4758L42.015 0.9833C40.1928 -0.34051 37.6775 -0.325901 35.8943 1.01658L2.22924 25.4758C-0.0750547 27.1503 -0.591268 30.3888 1.07912 32.6947C1.88996 33.814 3.08878 34.5501 4.4548 34.7677C5.82 34.9852 7.18602 34.6573 8.30285 33.8456L10.918 31.9455V65.5489C10.918 68.0033 12.9147 70 15.3691 70H62.5856C65.04 70 67.0367 68.0033 67.0367 65.5489V31.9455L69.6518 33.8456C70.5439 34.4933 71.5941 34.8326 72.6769 34.8326C72.9504 34.8326 73.2256 34.8107 73.5007 34.7668C74.8667 34.5493 76.0655 33.8131 76.8764 32.6939C78.5468 30.3888 78.0306 27.1503 75.7263 25.4758ZM22.6732 67.5602C23.5092 64.5871 26.268 62.4118 29.4554 62.4118C30.2241 62.4118 30.9789 62.5344 31.6996 62.7771C32.2938 62.9767 32.9423 62.6935 33.1996 62.1229C34.2231 59.8559 36.49 58.3909 38.9769 58.3909C41.463 58.3909 43.7308 59.8559 44.7543 62.1229C45.0116 62.6943 45.6601 62.9767 46.2542 62.7771C46.975 62.5352 47.7306 62.4118 48.4985 62.4118C51.6858 62.4118 54.4447 64.5871 55.2807 67.5602H22.6732ZM64.5969 65.5489C64.5969 66.6576 63.6943 67.5602 62.5856 67.5602H57.7887C57.3967 65.6268 56.4105 63.859 54.943 62.4987C53.1858 60.8697 50.8969 59.972 48.4993 59.972C47.8191 59.972 47.1454 60.0434 46.488 60.1863C45.1285 57.9412 42.8242 56.4186 40.2342 56.0428C40.6246 54.0915 41.4444 52.2962 42.5076 50.7435C44.355 51.7848 45.9953 52.3018 47.4652 52.3018C48.1056 52.3018 48.7136 52.2036 49.2923 52.008C52.4464 50.9431 53.8408 47.2298 55.0721 43.954C55.9625 41.5839 56.8829 39.1327 58.2205 38.3844C58.6994 38.1157 58.9404 37.5606 58.8089 37.0273C58.6774 36.494 58.2051 36.115 57.6564 36.1004C47.7842 35.8447 42.3948 39.4485 40.6416 42.9061C39.619 44.9231 39.6685 47.1008 40.7423 49.0244C40.4176 49.4765 40.1157 49.9375 39.8381 50.4074C39.2277 47.785 38.3755 45.3971 37.3285 43.3331C38.8666 41.4622 39.2626 39.1327 38.4031 36.8536C37.0346 33.2263 32.0665 29.0593 22.226 28.2444C21.6789 28.1989 21.1684 28.5252 20.9801 29.0406C20.791 29.556 20.9704 30.1347 21.4176 30.4529C22.6659 31.3417 23.3152 33.8781 23.9435 36.3309C24.8119 39.7212 25.7965 43.5628 28.8166 44.9637C29.5755 45.3159 30.4083 45.4921 31.3238 45.4921C32.491 45.4921 33.7929 45.2039 35.2433 44.6285C36.5955 47.3637 37.602 50.75 38.1012 54.4771C37.9591 54.9933 37.8422 55.5128 37.7546 56.0363C35.15 56.404 32.8319 57.9299 31.4667 60.1855C30.8084 60.0434 30.1356 59.9712 29.4554 59.9712C27.0578 59.9712 24.7689 60.8681 23.0117 62.4979C21.5442 63.8582 20.558 65.626 20.166 67.5593H15.3691C14.2604 67.5593 13.3578 66.6568 13.3578 65.5481V30.1729L38.9778 11.5592L64.5969 30.1729V65.5489ZM42.8177 44.0092C44.0165 41.6448 47.8337 38.9931 54.7839 38.5816C54.0015 39.8681 53.4049 41.4557 52.7889 43.0952C51.698 45.9985 50.5706 49.0008 48.5123 49.6956C47.3833 50.0771 45.8898 49.7784 44.0636 48.8117C45.5814 47.2022 47.337 46.0115 48.992 45.4011C49.6242 45.1682 49.9473 44.4669 49.7143 43.8347C49.4814 43.2024 48.7801 42.8785 48.1478 43.1123C46.1398 43.8525 44.1772 45.1836 42.4865 46.9311C42.213 45.979 42.321 44.9896 42.8177 44.0092ZM35.9714 41.0028C34.5161 38.8259 32.8027 37.184 30.918 36.2465C30.315 35.9462 29.5828 36.1921 29.2825 36.7952C28.9822 37.3982 29.2281 38.1303 29.8312 38.4307C31.3685 39.1952 32.7938 40.6018 34.025 42.4849C32.2629 43.1334 30.8604 43.2235 29.8426 42.7519C27.8719 41.838 27.0764 38.731 26.307 35.727C25.872 34.0307 25.4515 32.3871 24.8127 31.0235C31.6769 32.185 35.1849 35.2352 36.1199 37.7156C36.5582 38.8746 36.503 39.9915 35.9714 41.0028ZM74.9008 31.2629C74.4723 31.8538 73.8392 32.2426 73.1176 32.3578C72.3969 32.4731 71.6761 32.2994 71.0868 31.8717L39.6953 9.06414C39.481 8.90912 39.2294 8.83201 38.9778 8.83201C38.7261 8.83201 38.4745 8.90993 38.2611 9.06495L6.86947 31.8725C6.28021 32.3002 5.55946 32.4739 4.83871 32.3587C4.11715 32.2442 3.48324 31.8554 3.0555 31.2637C2.17323 30.0463 2.44595 28.3353 3.66424 27.4498L37.3382 2.98403C37.3447 2.97916 37.3512 2.97429 37.3577 2.96942C38.2919 2.26166 39.6182 2.25679 40.5816 2.95725L74.2929 27.4498C75.5096 28.3345 75.7831 30.0454 74.9008 31.2629Z" fill="#1AA9E3"/>
</svg>