<svg xmlns="http://www.w3.org/2000/svg" width="100" height="31" viewBox="0 0 100 31" fill="none">
  <path d="M12.3018 28.8396L12.3302 30.5623H14.0105L15.2751 30.5409V28.8396H12.3018Z" fill="#FBFBFB"/>
  <path d="M25.0552 30.5016L27.4779 30.4945C29.8118 30.4765 32.096 29.9071 34.1387 28.8362H25.0552V30.5016Z" fill="#FBFBFB"/>
  <path d="M15.2754 28.8396V30.5409L16.1919 30.5301L25.0551 30.5015V28.8396H15.2754Z" fill="#FBFBFB"/>
  <path d="M6.66096 25.8526C6.25954 25.6341 5.87233 25.3511 5.4496 24.9536C4.9345 24.4951 4.494 23.9543 4.13166 23.3562H3.76221V27.2852H7.71247V26.3719C7.36789 26.2358 7.03397 26.0746 6.7178 25.8812L6.66096 25.849V25.8526Z" fill="#FBFBFB"/>
  <path d="M3.96469 23.0768C3.89009 22.9371 3.8297 22.7974 3.76221 22.6577V23.3561H4.13166C4.07482 23.263 4.01798 23.1735 3.96469 23.0768Z" fill="#FBFBFB"/>
  <path d="M3.0091 15.8349V15.4946H0.00732422V15.8492C0.0108766 16.8019 0.0108766 18.1772 0.0606102 19.4272H3.06239C3.0091 18.1987 3.0091 16.7482 3.0091 15.8349Z" fill="#FBFBFB"/>
  <path d="M3.32875 21.5904C3.3181 21.5439 3.30744 21.4973 3.29323 21.4508C3.27902 21.3863 3.26126 21.3218 3.2435 21.2538C3.23639 21.2251 3.22573 21.1929 3.21863 21.1678L3.14403 20.695C3.10495 20.3333 3.08008 19.8928 3.05877 19.4236H0.0605469C0.0854137 20.0611 0.120938 20.67 0.181328 21.1642L0.188433 21.2215C0.19909 21.3863 0.2879 21.7874 0.305662 21.8555L0.628931 22.955C0.678664 23.0876 0.735502 23.2201 0.792341 23.3526H3.7657V22.6542C3.59874 22.3032 3.44953 21.9486 3.33231 21.5869" fill="#FBFBFB"/>
  <path d="M7.7124 26.372V27.2853H10.3021V26.8806C9.41045 26.8734 8.53301 26.6979 7.7124 26.3684" fill="#FBFBFB"/>
  <path d="M0.00710479 15.4947H3.00533L2.99822 14.764L3.01954 11.5907L3.76199 11.5943V11.5657H0.0213144L0 14.7712L0.00710479 15.4947Z" fill="#FBFBFB"/>
  <path d="M3.5415 27.2888C3.6161 27.3569 3.68715 27.4213 3.76175 27.4822V27.2888H3.5415Z" fill="#FBFBFB"/>
  <path d="M7.71205 29.5523C8.54686 29.7779 9.41009 29.8997 10.2804 29.9033L10.2982 27.2852H7.7085V29.5523H7.71205Z" fill="#FBFBFB"/>
  <path d="M7.7123 11.5655V8.60711L3.00537 8.57129V11.5655H7.7123Z" fill="#FBFBFB"/>
  <path d="M3.76193 23.3562H0.788574C0.948432 23.7538 1.12605 24.1442 1.33564 24.5274C1.89337 25.5517 2.61095 26.4579 3.43866 27.1921C3.47419 27.2243 3.50971 27.253 3.54168 27.2852H3.76193V23.3562Z" fill="#FBFBFB"/>
  <path d="M3.76221 11.5657V11.5943L7.71247 11.6301V11.5657H3.76221Z" fill="#FBFBFB"/>
  <path d="M10.4406 11.5656L10.462 8.62867L7.7124 8.60718V11.5656H10.4406Z" fill="#FBFBFB"/>
  <path d="M3.76185 27.2888V27.4822C4.23077 27.8869 4.70679 28.2236 5.20768 28.4994C5.98921 28.965 6.83468 29.3196 7.70857 29.556V27.2888H3.7583H3.76185Z" fill="#FBFBFB"/>
  <path d="M7.7124 11.6301L10.4371 11.6516L10.4406 11.5657H7.7124V11.6301Z" fill="#FBFBFB"/>
  <path d="M20.7959 23.1627C21.0375 23.0338 21.2684 22.8619 21.5206 22.6255C21.8297 22.3497 22.0925 22.0273 22.3092 21.6692H22.5295V24.0259H20.1636V23.4779C20.3696 23.3955 20.5685 23.2988 20.7604 23.1842L20.7923 23.1663L20.7959 23.1627Z" fill="#FBFBFB"/>
  <path d="M22.412 21.501C22.4581 21.4186 22.4937 21.3326 22.5327 21.2502V21.6693H22.3125C22.3445 21.612 22.38 21.5583 22.412 21.501Z" fill="#FBFBFB"/>
  <path d="M22.9841 17.1602V16.9561H24.7816V17.1674C24.7816 17.7404 24.7816 18.5642 24.7497 19.3092H22.9521C22.9841 18.5714 22.9841 17.7046 22.9841 17.1566" fill="#FBFBFB"/>
  <path d="M22.7922 20.609C22.7993 20.5804 22.8064 20.5517 22.8135 20.5231C22.8241 20.4837 22.8313 20.4443 22.8419 20.4049C22.8455 20.387 22.8526 20.3691 22.8561 20.3547L22.9023 20.0718C22.9236 19.8533 22.9414 19.5919 22.952 19.3125H24.7495C24.6927 20.806 24.3446 21.5868 24.3126 21.6692H22.5293V21.2501C22.6288 21.0388 22.7211 20.8275 22.7886 20.609" fill="#FBFBFB"/>
  <path d="M20.1671 23.4744V24.0223H18.6147V23.7824C19.1476 23.7788 19.6769 23.6714 20.1671 23.4779" fill="#FBFBFB"/>
  <path d="M24.7814 16.9559H22.9874L22.991 16.5189L22.9768 14.6171L22.5327 14.6207V14.6028H24.7743L24.7885 16.5225L24.7814 16.9559Z" fill="#FBFBFB"/>
  <path d="M22.6642 24.0225C22.6215 24.0619 22.5753 24.1013 22.5327 24.1407V24.0225H22.6642Z" fill="#FBFBFB"/>
  <path d="M24.7639 12.7905L22.9521 12.8084V14.6171H24.7745L24.7639 12.7905Z" fill="#FBFBFB"/>
  <path d="M20.1671 25.3799C19.6663 25.516 19.1512 25.5876 18.6254 25.5912L18.6147 24.0225H20.1671V25.3799Z" fill="#FBFBFB"/>
  <path d="M22.5327 21.6657H24.316C24.2201 21.9021 24.1135 22.1385 23.9892 22.3677C23.6553 22.9837 23.2254 23.5245 22.7281 23.9651C22.7068 23.983 22.6855 24.0009 22.6642 24.0188H22.5327V21.6621V21.6657Z" fill="#FBFBFB"/>
  <path d="M20.167 12.8301V14.603V14.6388L22.9521 14.6209V14.603V12.8086L20.167 12.8301Z" fill="#FBFBFB"/>
  <path d="M22.5329 24.0225V24.1407C22.2522 24.3806 21.9681 24.5848 21.6661 24.7495C21.1972 25.0289 20.6927 25.2402 20.167 25.3835V24.026H22.5329V24.0225Z" fill="#FBFBFB"/>
  <path d="M18.5186 12.8408L18.5328 14.603V14.6531L20.1669 14.6388V14.603V12.8301L18.5186 12.8408Z" fill="#FBFBFB"/>
  <path d="M15.6624 11.6122C15.7157 11.3615 15.7832 11.0785 15.8649 10.8529L15.8969 10.7562C16.0674 10.1688 16.3587 9.52052 16.8027 8.72541L16.9484 8.50693C17.0905 8.2598 17.2468 8.01983 17.4067 7.78345H15.396V12.6365C15.4564 12.35 15.5345 12.042 15.634 11.7268L15.6624 11.6122Z" fill="#FBFBFB"/>
  <path d="M15.396 27.5179L15.2752 27.5215L15.2361 21.8196H12.2485L12.277 25.6483L12.3018 28.8252V28.8395H15.396V27.5179Z" fill="#FBFBFB"/>
  <path d="M15.3959 5.44116C15.0585 5.88528 14.7388 6.34014 14.4546 6.82366L14.3018 7.0493C14.1562 7.30359 14.0212 7.55072 13.9004 7.7871H15.3959V5.44116Z" fill="#FBFBFB"/>
  <path d="M15.1937 14.8572C15.1937 14.8572 15.1937 14.8214 15.1937 14.8035H12.1919L12.2452 21.8234H15.2363L15.1901 14.8608L15.1937 14.8572Z" fill="#FBFBFB"/>
  <path d="M15.2009 14.6565C15.208 14.4953 15.2151 14.3163 15.2329 14.2088L15.2613 14.0441L15.2542 13.8757C15.24 13.557 15.2897 13.1272 15.3927 12.6365V7.78345H13.8972C13.5064 8.53558 13.2258 9.2125 13.0339 9.85719C12.9096 10.2118 12.8173 10.5771 12.7462 10.8994C12.5046 11.7017 12.2382 12.8335 12.2524 13.8578C12.2204 14.0978 12.2098 14.3306 12.2027 14.5276L12.1885 14.7783V14.8034H15.1903C15.1903 14.7568 15.1938 14.7067 15.1974 14.6565" fill="#FBFBFB"/>
  <path d="M34.7143 24.9179C34.2844 25.2617 33.851 25.5554 33.407 25.799L33.3502 25.8312C31.5811 26.8913 29.542 27.4608 27.4603 27.4751L25.0518 27.4823V28.8397H34.1352C34.3306 28.7394 34.5189 28.632 34.7107 28.521V24.9143L34.7143 24.9179Z" fill="#FBFBFB"/>
  <path d="M42.4332 7.78332H39.4279L39.3853 2.56494H42.3906L42.4332 7.78332Z" fill="#FBFBFB"/>
  <path d="M39.4317 8.08438L39.4139 9.77489C39.4139 11.1287 39.4139 13.0592 39.3535 14.8034H42.3517C42.4121 13.027 42.4121 11.1287 42.4121 9.78922L42.4299 8.08796V7.78711H39.4281V8.08438H39.4317Z" fill="#FBFBFB"/>
  <path d="M39.1938 17.3501L39.1085 17.8658L39.0979 17.9518C39.0908 18.0127 39.0552 18.1452 39.0268 18.2526C39.0055 18.335 38.9842 18.421 38.9629 18.4998C38.9274 18.5965 38.9025 18.6967 38.8847 18.797C38.6183 19.628 38.2808 20.4231 37.851 21.2182C37.7409 21.4223 37.6165 21.6193 37.4922 21.8163H40.9096C41.1796 21.2433 41.4211 20.6595 41.6236 20.0721L41.8403 19.388L41.9433 19.0513L41.9256 19.0012C41.9682 18.8436 42.0144 18.6573 42.0499 18.4496C42.089 18.3171 42.1316 18.138 42.1387 17.9303L42.1529 17.8157C42.2524 16.9704 42.3128 15.9103 42.3483 14.7964H39.3501C39.3181 15.7419 39.2684 16.6302 39.1902 17.3429" fill="#FBFBFB"/>
  <path d="M20.3198 1.26488C20.4796 1.17893 20.7496 1.06073 20.9805 0.960449V4.34505C19.5631 5.22612 18.3375 6.40089 17.4068 7.78696H15.3926V5.44102C16.1528 4.44176 17.0267 3.54278 18.0071 2.76915C18.0071 2.76915 18.0249 2.75124 18.0604 2.72259H18.064C18.064 2.72259 18.0924 2.7011 18.1102 2.68678C18.7141 2.21759 19.3499 1.79496 20.0214 1.42247C20.1208 1.37233 20.2167 1.31861 20.3198 1.26488Z" fill="#FBFBFB"/>
  <path d="M21.3606 0.802979C21.2967 0.831631 21.2363 0.853121 21.1724 0.878192C21.247 0.845958 21.3145 0.820886 21.3606 0.802979Z" fill="#FBFBFB"/>
  <path d="M35.3782 24.3447C35.1544 24.5524 34.9341 24.7387 34.7139 24.9177V28.5244C34.76 28.4957 34.8098 28.4743 34.856 28.4456C35.7476 27.9585 36.586 27.3425 37.3888 26.5868C38.6322 25.4836 39.673 24.1692 40.4865 22.6757C40.6393 22.3963 40.7778 22.1098 40.9164 21.8232H37.4989C36.9164 22.758 36.2165 23.6033 35.3817 24.3447" fill="#FBFBFB"/>
  <path d="M0.0392464 8.54272L0.0250368 11.1215H0.0214844V11.5942H3.0055V11.5656V11.1215V8.57138L0.0392464 8.54272Z" fill="#FBFBFB"/>
  <path d="M42.391 0.000732422V2.56157H31.8652V0.0258036C35.7054 0.0150588 39.3857 0.000732422 39.3857 0.000732422H42.391Z" fill="#FBFBFB"/>
  <path d="M25.57 0.000682246C24.0034 -0.0172257 22.5967 0.319444 21.4386 0.770724C21.4102 0.781469 21.3853 0.792214 21.364 0.802959C21.3001 0.831611 21.2397 0.853101 21.1757 0.878172C21.1082 0.906825 21.0478 0.931896 20.9839 0.960549V4.34515C21.6127 3.95476 22.2841 3.62167 22.9839 3.34947L23.0372 3.32798C23.5487 3.10592 24.2343 2.92326 25.0549 2.76925C25.229 2.73702 25.4031 2.70478 25.5842 2.67971H25.5949L31.8649 2.56152V0.029335C29.57 0.029335 27.2219 0.0257534 25.5736 0.000682246" fill="#FBFBFB"/>
  <path d="M16.1706 27.5072L15.2754 27.518V28.8396H25.0551V27.4822L17.8757 27.5072H16.1706Z" fill="#FBFBFB"/>
  <path d="M46.1846 22.8691C46.1846 28.0803 48.0567 30.6842 51.7974 30.6842C53.6411 30.6304 55.435 30.4693 57.1792 30.2006V27.8547C55.3782 28.066 53.6055 28.1842 51.8578 28.2129C49.9856 28.2129 49.0514 26.4328 49.0514 22.8691C49.0514 19.3054 49.9856 17.5254 51.8578 17.5254C53.602 17.5397 55.3853 17.6507 57.2006 17.8656V15.4767C55.4421 15.2224 53.6411 15.0684 51.7974 15.0111C48.0531 15.0111 46.1846 17.6293 46.1846 22.8655V22.8691Z" fill="#FBFBFB"/>
  <path d="M66.4189 15.0327H64.6179C63.8754 15.0327 63.3745 15.441 63.1081 16.2576L58.355 30.7237H61.2253L62.5042 27.1528H68.5575L69.815 30.7237H72.6854L67.9287 16.2576C67.6623 15.441 67.1614 15.0327 66.4189 15.0327ZM63.3177 24.6206L65.4136 18.2848H65.6836L67.7369 24.6206H63.3177Z" fill="#FBFBFB"/>
  <path d="M76.7282 28.0304C76.2486 27.6543 76.0035 27.2783 76.0035 26.9201V15.3945H73.1758V26.4545C73.1758 27.0526 73.2326 27.5719 73.3641 28.0734C73.6056 28.7216 74.0497 29.2696 74.6856 29.703C75.5701 30.3011 76.6607 30.6306 77.9431 30.6808H84.2095V28.3671H78.4298C77.3747 28.3671 76.9236 28.1844 76.7282 28.0304Z" fill="#FBFBFB"/>
  <path d="M95.2431 16.2576C94.9767 15.441 94.4758 15.0327 93.7334 15.0327H91.9323C91.1934 15.0327 90.689 15.441 90.4225 16.2576L85.6694 30.7237H88.5398L89.8186 27.1528H95.8719L97.1295 30.7237H99.9998L95.2431 16.2576ZM90.6357 24.6206L92.7316 18.2848H93.0051L95.0584 24.6206H90.6392H90.6357Z" fill="#FBFBFB"/>
</svg>