<svg width="166" height="51" viewBox="0 0 166 51" fill="none" xmlns="http://www.w3.org/2000/svg">
<path d="M11.0568 42.9153C10.3905 42.5527 9.74768 42.083 9.04594 41.423C8.19088 40.662 7.45965 39.7643 6.85816 38.7714H6.24487V45.2935H12.8023V43.7774C12.2303 43.5515 11.676 43.284 11.1512 42.9629L11.0568 42.9094V42.9153Z" fill="#F49523"/>
<path d="M6.581 38.3076C6.45716 38.0757 6.35692 37.8439 6.24487 37.612V38.7714H6.85816C6.76381 38.6168 6.66946 38.4681 6.581 38.3076Z" fill="#F49523"/>
<path d="M4.99479 26.2859V25.7211H0.0118408V26.3097C0.0177378 27.8912 0.0177378 30.1743 0.100296 32.2492H5.08324C4.99479 30.2099 4.99479 27.802 4.99479 26.2859Z" fill="#DAA8E2"/>
<path d="M5.52544 35.8403C5.50775 35.763 5.49006 35.6857 5.46647 35.6084C5.44288 35.5014 5.4134 35.3944 5.38391 35.2814C5.37212 35.2338 5.35443 35.1803 5.34264 35.1387L5.2188 34.3539C5.15393 33.7534 5.11265 33.0221 5.07727 32.2433H0.10022C0.141499 33.3016 0.200468 34.3123 0.300717 35.1328L0.312511 35.2279C0.330202 35.5014 0.477627 36.1673 0.507111 36.2802L1.04374 38.1055C1.12629 38.3255 1.22065 38.5455 1.315 38.7654H6.25077V37.6061C5.97361 37.0234 5.72594 36.4348 5.53134 35.8343" fill="#E52629"/>
<path d="M12.8024 43.7774V45.2935H17.1013V44.6217C15.6211 44.6098 14.1646 44.3185 12.8024 43.7715" fill="#8EC045"/>
<path d="M0.011794 25.7211H4.98885L4.97705 24.5083L5.01243 19.2406L6.2449 19.2465V19.199H0.0353819L0 24.5201L0.011794 25.7211Z" fill="#A05CBF"/>
<path d="M5.87927 45.2994C6.00311 45.4124 6.12105 45.5194 6.24489 45.6205V45.2994H5.87927Z" fill="#8EC045"/>
<path d="M12.8023 49.057C14.1881 49.4315 15.621 49.6337 17.0658 49.6396L17.0953 45.2935H12.7964V49.057H12.8023Z" fill="#2C8939"/>
<path d="M12.8024 19.199V14.288L4.98889 14.2286V19.199H12.8024Z" fill="#64328A"/>
<path d="M6.24485 38.7714H1.30908C1.57445 39.4313 1.8693 40.0794 2.21722 40.7155C3.14304 42.4159 4.33423 43.9201 5.70823 45.1389C5.7672 45.1924 5.82617 45.24 5.87924 45.2935H6.24485V38.7714Z" fill="#F9B041"/>
<path d="M6.24487 19.199V19.2465L12.8023 19.306V19.199H6.24487Z" fill="#64328A"/>
<path d="M17.3312 19.199L17.3666 14.3237L12.8024 14.288V19.199H17.3312Z" fill="#DB1F5D"/>
<path d="M6.24491 45.2994V45.6205C7.02331 46.2923 7.81351 46.8512 8.64498 47.309C9.94232 48.0819 11.3458 48.6705 12.7965 49.0629V45.2994H6.23901H6.24491Z" fill="#48AE4D"/>
<path d="M12.8024 19.306L17.3254 19.3417L17.3312 19.199H12.8024V19.306Z" fill="#DB1F5D"/>
<path d="M34.521 38.4503C34.922 38.2363 35.3053 37.9509 35.724 37.5585C36.237 37.1007 36.6734 36.5656 37.0331 35.9711H37.3987V39.8832H33.4713V38.9735C33.8133 38.8368 34.1436 38.6762 34.462 38.486L34.5151 38.4563L34.521 38.4503Z" fill="#F49523"/>
<path d="M37.2041 35.6916C37.2807 35.5549 37.3397 35.4122 37.4046 35.2755V35.9711H37.0389C37.092 35.8759 37.151 35.7868 37.2041 35.6916Z" fill="#F49523"/>
<path d="M38.1534 28.4857V28.1469H41.1373V28.4976C41.1373 29.4489 41.1373 30.8164 41.0842 32.053H38.1003C38.1534 30.8282 38.1534 29.3894 38.1534 28.4798" fill="#225D38"/>
<path d="M37.8351 34.2112C37.8469 34.1636 37.8586 34.1161 37.8704 34.0685C37.8881 34.0031 37.8999 33.9377 37.9176 33.8723C37.9235 33.8426 37.9353 33.8129 37.9412 33.7891L38.0179 33.3194C38.0532 32.9567 38.0827 32.5227 38.1004 32.059H41.0843C40.9899 34.5382 40.412 35.8343 40.359 35.9711H37.3987V35.2754C37.5638 34.9247 37.7171 34.5739 37.8292 34.2112" fill="#005640"/>
<path d="M33.4771 38.9675V39.8772H30.9001V39.4788C31.7847 39.4729 32.6633 39.2945 33.4771 38.9735" fill="#8EC045"/>
<path d="M41.1373 28.1469H38.1594L38.1653 27.4215L38.1417 24.2645L37.4045 24.2704V24.2407H41.1255L41.1491 27.4275L41.1373 28.1469Z" fill="#009D4F"/>
<path d="M37.6227 39.8772C37.552 39.9426 37.4753 40.008 37.4045 40.0734V39.8772H37.6227Z" fill="#8EC045"/>
<path d="M41.1078 21.2323L38.1003 21.262V24.2645H41.1255L41.1078 21.2323Z" fill="#4D266C"/>
<path d="M33.4771 42.1305C32.6457 42.3564 31.7906 42.4754 30.9178 42.4813L30.9001 39.8772H33.4771V42.1305Z" fill="#2C8939"/>
<path d="M37.4045 35.9651H40.3648C40.2056 36.3575 40.0287 36.7499 39.8223 37.1304C39.268 38.153 38.5545 39.0508 37.7289 39.7821C37.6935 39.8118 37.6581 39.8415 37.6227 39.8713H37.4045V35.9592V35.9651Z" fill="#F9B041"/>
<path d="M33.4772 21.2977V24.2407V24.3001L38.1004 24.2704V24.2407V21.262L33.4772 21.2977Z" fill="#64328A"/>
<path d="M37.4046 39.8772V40.0734C36.9387 40.4717 36.4669 40.8106 35.9657 41.0841C35.1873 41.5479 34.3499 41.8986 33.4772 42.1365V39.8831H37.4046V39.8772Z" fill="#48AE4D"/>
<path d="M30.741 21.3156L30.7646 24.2407V24.324L33.4772 24.3002V24.2407V21.2977L30.741 21.3156Z" fill="#DB1F5D"/>
<path d="M25.9998 19.2763C26.0882 18.8601 26.2003 18.3904 26.3359 18.0158L26.389 17.8553C26.672 16.8803 27.1556 15.8041 27.8927 14.4842L28.1345 14.1216C28.3704 13.7113 28.6298 13.313 28.8952 12.9206H25.5575V20.9767C25.6577 20.501 25.7875 19.9897 25.9526 19.4665L25.9998 19.2763Z" fill="#0E62AD"/>
<path d="M25.5575 45.68L25.357 45.6859L25.2921 36.2208H20.3328L20.3799 42.5764L20.4212 47.8501V47.8738H25.5575V45.68Z" fill="#F9B041"/>
<path d="M25.5575 9.03229C24.9972 9.76952 24.4665 10.5246 23.9948 11.3272L23.7412 11.7018C23.4994 12.1239 23.2753 12.5342 23.0748 12.9266H25.5575V9.03229Z" fill="#0E4D85"/>
<path d="M25.2214 24.6628C25.2214 24.6628 25.2214 24.6034 25.2214 24.5737H20.2384L20.3269 36.2267H25.2921L25.2155 24.6688L25.2214 24.6628Z" fill="#285896"/>
<path d="M25.2332 24.3299C25.245 24.0624 25.2568 23.7651 25.2863 23.5867L25.3334 23.3132L25.3216 23.0338C25.298 22.5046 25.3806 21.7912 25.5516 20.9767V12.9206H23.069C22.4203 14.1691 21.9545 15.2928 21.636 16.363C21.4296 16.9516 21.2763 17.558 21.1584 18.0931C20.7574 19.4249 20.3151 21.3037 20.3387 23.0041C20.2856 23.4024 20.2679 23.7889 20.2561 24.1159L20.2325 24.532V24.5737H25.2155C25.2155 24.4964 25.2214 24.4131 25.2273 24.3299" fill="#212C56"/>
<path d="M20.4213 47.8738L20.4684 50.7336H23.2577L25.357 50.6979V47.8738H20.4213Z" fill="#EB5C2C"/>
<path d="M57.6252 41.3636C56.9117 41.9343 56.1923 42.4218 55.4552 42.8261L55.3608 42.8796C52.4241 44.6395 49.0392 45.5848 45.5836 45.6086L41.5854 45.6205V47.8738H56.664C56.9884 47.7073 57.3009 47.529 57.6193 47.3447V41.3576L57.6252 41.3636Z" fill="#D5DA2F"/>
<path d="M41.5914 50.6325L45.6132 50.6206C49.4875 50.5909 53.2792 49.6455 56.67 47.8679H41.5914V50.6325Z" fill="#D5DA2F"/>
<path d="M25.3571 47.8738V50.6979L26.8785 50.6801L41.5914 50.6325V47.8738H25.3571Z" fill="#F9B041"/>
<path d="M70.4395 12.9206H65.4506L65.3799 4.25806H70.3687L70.4395 12.9206Z" fill="#81708F"/>
<path d="M65.4565 13.42L65.427 16.2262C65.427 18.4736 65.427 21.6782 65.3268 24.5736H70.3038C70.4041 21.6247 70.4041 18.4736 70.4041 16.25L70.4336 13.4259V12.9265H65.4506V13.42H65.4565Z" fill="#48AE4D"/>
<path d="M65.0613 28.8009L64.9198 29.657L64.9021 29.7997C64.8903 29.9008 64.8314 30.1208 64.7842 30.2991C64.7488 30.4359 64.7134 30.5786 64.678 30.7094C64.6191 30.8699 64.5778 31.0364 64.5483 31.2028C64.106 32.5822 63.5458 33.9021 62.8323 35.2219C62.6495 35.5608 62.4431 35.8878 62.2367 36.2148H67.9096C68.3578 35.2636 68.7588 34.2945 69.0949 33.3194L69.4546 32.1838L69.6256 31.625L69.5961 31.5417C69.6669 31.2801 69.7436 30.971 69.8025 30.6261C69.8674 30.4061 69.9382 30.1089 69.9499 29.764L69.9735 29.5738C70.1386 28.1707 70.2389 26.4108 70.2979 24.5618H65.3208C65.2677 26.1314 65.1852 27.6058 65.0555 28.789" fill="#2C8939"/>
<path d="M33.7307 2.09984C33.9961 1.95715 34.4443 1.76095 34.8276 1.59448V7.21293C32.4747 8.6755 30.4402 10.6256 28.8952 12.9265H25.5516V9.03223C26.8136 7.37345 28.2642 5.88115 29.8918 4.59693C29.8918 4.59693 29.9213 4.5672 29.9803 4.51964H29.9862C29.9862 4.51964 30.0333 4.48397 30.0628 4.46019C31.0653 3.68133 32.1209 2.97977 33.2354 2.36144C33.4005 2.27821 33.5597 2.18903 33.7307 2.09984Z" fill="#087EAD"/>
<path d="M35.4585 1.33289C35.3524 1.38045 35.2521 1.41612 35.146 1.45774C35.2698 1.40423 35.3819 1.36261 35.4585 1.33289Z" fill="#4D266C"/>
<path d="M58.728 40.4123C58.3565 40.7571 57.9909 41.0663 57.6252 41.3635V47.3506C57.7019 47.303 57.7845 47.2674 57.8611 47.2198C59.3413 46.4112 60.733 45.3886 62.0657 44.1341C64.1296 42.3029 65.8574 40.1209 67.2078 37.6417C67.4614 37.178 67.6914 36.7023 67.9214 36.2267H62.2485C61.2814 37.7784 60.1197 39.1816 58.7339 40.4123" fill="#8FC045"/>
<path d="M0.0648853 14.181L0.0412974 18.4617H0.0354004V19.2465H4.98886V19.199V18.4617V14.2286L0.0648853 14.181Z" fill="#4D266C"/>
<path d="M70.3686 0.00115967V4.25215H52.8959V0.0427778C59.2705 0.0249414 65.3798 0.00115967 65.3798 0.00115967H70.3686Z" fill="#4D266C"/>
<path d="M42.4465 0.00113253C39.8459 -0.0285947 37.5107 0.530277 35.5883 1.2794C35.5411 1.29724 35.4999 1.31508 35.4645 1.33291C35.3583 1.38048 35.2581 1.41615 35.1519 1.45777C35.0399 1.50533 34.9396 1.54695 34.8335 1.59451V7.21295C35.8773 6.5649 36.9918 6.01197 38.1535 5.56012L38.242 5.52445C39.0911 5.15583 40.2292 4.85261 41.5914 4.59696C41.8804 4.54345 42.1693 4.48994 42.4701 4.44832H42.4878L52.8959 4.25212V0.0486961C49.0865 0.0486961 45.1886 0.0427506 42.4524 0.00113253" fill="#212C56"/>
<path d="M26.8431 45.6621L25.3571 45.6799V47.8738H41.5914V45.6205L29.6736 45.6621H26.8431Z" fill="#EB5C2C"/>
<path d="M76.6666 37.9628C76.6666 46.6134 79.7743 50.9358 85.9839 50.9358C89.0444 50.8466 92.0224 50.579 94.9178 50.1331V46.2389C91.928 46.5897 88.9854 46.7859 86.0841 46.8334C82.9764 46.8334 81.4255 43.8785 81.4255 37.9628C81.4255 32.0471 82.9764 29.0922 86.0841 29.0922C88.9795 29.116 91.9398 29.3003 94.9532 29.657V25.6914C92.0342 25.2693 89.0444 25.0136 85.9839 24.9185C79.7684 24.9185 76.6666 29.2646 76.6666 37.9569V37.9628Z" fill="white"/>
<path d="M110.256 24.9542H107.266C106.034 24.9542 105.202 25.632 104.76 26.9876L96.8696 51.0012H101.634L103.757 45.0736H113.806L115.893 51.0012H120.658L112.762 26.9876C112.32 25.632 111.488 24.9542 110.256 24.9542ZM105.108 40.8702L108.587 30.3527H109.035L112.444 40.8702H105.108Z" fill="white"/>
<path d="M127.369 46.5302C126.573 45.9059 126.166 45.2817 126.166 44.6871V25.5547H121.472V43.9142C121.472 44.9071 121.566 45.7692 121.784 46.6015C122.185 47.6777 122.923 48.5873 123.978 49.3067C125.446 50.2996 127.257 50.8466 129.386 50.9298H139.788V47.0891H130.194C128.442 47.0891 127.693 46.7859 127.369 46.5302Z" fill="white"/>
<path d="M158.104 26.9876C157.662 25.632 156.83 24.9542 155.598 24.9542H152.608C151.381 24.9542 150.544 25.632 150.102 26.9876L142.212 51.0012H146.976L149.099 45.0736H159.148L161.235 51.0012H166L158.104 26.9876ZM150.456 40.8702L153.935 30.3527H154.389L157.797 40.8702H150.461H150.456Z" fill="white"/>
</svg>
