<svg xmlns="http://www.w3.org/2000/svg" width="50" height="50" viewBox="0 0 50 50" fill="none">
  <circle cx="25" cy="25" r="25" fill="#1AA9E3"/>
  <path d="M19.2952 31.4444C18.9263 31.4444 18.6183 31.3076 18.3713 31.0338C18.1238 30.7594 18 30.4178 18 30.0089V20.4356C18 20.0267 18.1238 19.6853 18.3713 19.4116C18.6183 19.1372 18.9263 19 19.2952 19H31.14C31.5089 19 31.8169 19.1372 32.0639 19.4116C32.3114 19.6853 32.4352 20.0267 32.4352 20.4356V30.0089C32.4352 30.4178 32.3117 30.7591 32.0647 31.0329C31.8172 31.3073 31.5089 31.4444 31.14 31.4444H19.2952ZM25.2176 25.3244L18.802 20.6756V30.0089C18.802 30.1683 18.8482 30.2993 18.9407 30.4018C19.0332 30.5043 19.1513 30.5556 19.2952 30.5556H31.14C31.2839 30.5556 31.402 30.5043 31.4945 30.4018C31.587 30.2993 31.6333 30.1683 31.6333 30.0089V20.6756L25.2176 25.3244ZM25.2176 24.3333L31.3862 19.8889H19.049L25.2176 24.3333ZM18.802 20.6756V19.8889V30.0089C18.802 30.1683 18.8482 30.2993 18.9407 30.4018C19.0332 30.5043 19.1513 30.5556 19.2952 30.5556H18.802V20.6756Z" fill="white"/>
  <path d="M18.802 20.6756L25.2176 25.3244L31.6333 20.6756V30.0089C31.6333 30.1683 31.587 30.2993 31.4945 30.4018C31.402 30.5043 31.2839 30.5556 31.14 30.5556H19.2952M18.802 20.6756V30.0089M18.802 20.6756V19.8889V30.0089M18.802 20.6756V30.5556H19.2952M18.802 30.0089C18.802 30.1683 18.8482 30.2993 18.9407 30.4018C19.0332 30.5043 19.1513 30.5556 19.2952 30.5556M19.2952 31.4444C18.9263 31.4444 18.6183 31.3076 18.3713 31.0338C18.1238 30.7594 18 30.4178 18 30.0089V20.4356C18 20.0267 18.1238 19.6853 18.3713 19.4116C18.6183 19.1372 18.9263 19 19.2952 19H31.14C31.5089 19 31.8169 19.1372 32.0639 19.4116C32.3114 19.6853 32.4352 20.0267 32.4352 20.4356V30.0089C32.4352 30.4178 32.3117 30.7591 32.0647 31.0329C31.8172 31.3073 31.5089 31.4444 31.14 31.4444H19.2952ZM25.2176 24.3333L31.3862 19.8889H19.049L25.2176 24.3333Z" stroke="white" stroke-width="0.3"/>
</svg>