<svg xmlns="http://www.w3.org/2000/svg" width="50" height="50" viewBox="0 0 50 50" fill="none">
  <circle cx="25" cy="25" r="25" fill="#1AA9E3"/>
  <path d="M31.8926 28.1774L28.3424 26.4166C28.2047 26.3506 28.0544 26.3236 27.9051 26.3382C27.7557 26.3527 27.6119 26.4083 27.4868 26.4999C27.4768 26.5069 27.4672 26.5147 27.4582 26.5233L25.5936 28.2849C25.5521 28.313 25.505 28.3293 25.4565 28.3323C25.408 28.3354 25.3595 28.3251 25.3155 28.3024C24.0945 27.6491 22.8306 26.2591 22.2412 24.9216C22.2203 24.8731 22.2106 24.8196 22.213 24.7659C22.2154 24.7123 22.2297 24.6601 22.2547 24.6141L23.8486 22.5132C23.8561 22.5032 23.8629 22.4924 23.8697 22.4815C23.9521 22.343 24.0021 22.184 24.0152 22.0187C24.0283 21.8535 24.0041 21.6872 23.9448 21.5349L22.3532 17.6065C22.2763 17.4075 22.1433 17.2416 21.9742 17.1335C21.805 17.0255 21.6087 16.9812 21.4149 17.0073C20.4687 17.1456 19.6004 17.6609 18.9719 18.4569C18.3435 19.253 17.998 20.2754 18 21.3332C18 27.7666 22.7216 33 28.5258 33C29.4802 33.0022 30.4026 32.6192 31.1208 31.9227C31.839 31.2262 32.3039 30.2637 32.4286 29.2149C32.452 29.0011 32.4125 28.7846 32.3159 28.5976C32.2193 28.4107 32.0708 28.2633 31.8926 28.1774ZM31.8339 29.1316C31.7278 30.0197 31.3334 30.8346 30.7246 31.4239C30.1157 32.0131 29.3341 32.3364 28.5258 32.3333C23.0539 32.3333 18.6015 27.3983 18.6015 21.3332C18.5987 20.4373 18.8904 19.571 19.422 18.8961C19.9536 18.2213 20.6888 17.7842 21.4901 17.6665C21.5021 17.6657 21.5141 17.6657 21.5262 17.6665C21.5855 17.667 21.6433 17.687 21.6924 17.724C21.7415 17.7609 21.7797 17.8131 21.8021 17.874L23.3892 21.8024C23.4077 21.8504 23.4158 21.9025 23.4128 21.9546C23.4098 22.0068 23.3958 22.0574 23.3719 22.1024L21.7788 24.2024C21.7713 24.2132 21.7637 24.2232 21.757 24.2349C21.6721 24.3788 21.6221 24.5444 21.6118 24.716C21.6016 24.8875 21.6314 25.059 21.6983 25.2141C22.3517 26.6966 23.699 28.1791 25.0516 28.9033C25.1924 28.977 25.348 29.0091 25.5034 28.9964C25.6587 28.9837 25.8084 28.9266 25.938 28.8308L25.9658 28.8074L27.8326 27.0474C27.8726 27.0204 27.9177 27.0042 27.9644 27.0003C28.011 26.9964 28.0579 27.0048 28.101 27.0249L31.6505 28.7883C31.7104 28.8159 31.7606 28.8643 31.7937 28.9262C31.8267 28.988 31.8409 29.0601 31.8339 29.1316Z" fill="white" stroke="white" stroke-width="0.5"/>
</svg>