<svg xmlns="http://www.w3.org/2000/svg" width="50" height="50" viewBox="0 0 50 50" fill="none">
  <circle cx="25" cy="25" r="25" fill="#1AA9E3"/>
  <path fill-rule="evenodd" clip-rule="evenodd" d="M24.985 32.999L25.6144 32.2898C26.3286 31.4719 26.971 30.6959 27.5426 29.9578L28.0144 29.3354C29.9845 26.6812 30.97 24.5746 30.97 23.0176C30.97 19.6941 28.2907 17 24.985 17C21.6793 17 19 19.6941 19 23.0176C19 24.5746 19.9855 26.6812 21.9556 29.3354L22.4274 29.9578C23.2428 31.0025 24.0959 32.0162 24.985 32.999Z" stroke="white" stroke-linecap="round" stroke-linejoin="round"/>
  <path d="M24.9859 25.4775C26.3632 25.4775 27.4797 24.361 27.4797 22.9838C27.4797 21.6067 26.3632 20.4902 24.9859 20.4902C23.6087 20.4902 22.4922 21.6067 22.4922 22.9838C22.4922 24.361 23.6087 25.4775 24.9859 25.4775Z" fill="white"/>
</svg>